<?xml version="1.0" encoding="utf-8"?>
<!-- Generator: Adobe Illustrator 23.0.1, SVG Export Plug-In . SVG Version: 6.00 Build 0)  -->
<svg version="1.1" id="Layer_1" xmlns="http://www.w3.org/2000/svg" xmlns:xlink="http://www.w3.org/1999/xlink" x="0px" y="0px"
	 viewBox="0 0 240 240" style="enable-background:new 0 0 240 240;" xml:space="preserve">
<g>
	<g>
		<path d="M148.5,172c0.2-0.1,19.5,10.9,38.5,4.4c27.9-9.6,31.4-22,50.9-33.6c-13.7-0.1-36.9-19.5-62.9-14.4
			c-0.9,0.2-1.5,0.5-2.4,0.7c3.1-3.4,6-7,8.4-11c2.7-4.5,4.9-9.3,6.4-14.5c0.4-1.3,0.8-2.6,1.1-3.9c0.9-3.8,1.5-7.7,1.8-11.7
			c0-0.2,0-0.5,0-0.7c0.1-2,0.1-3.9,0.1-5.9c-0.2-6.4-1.4-12.7-3.3-18.6c-0.1-0.4-0.3-0.9-0.4-1.3c-2.6-7.4-6.5-14.3-11.4-20.3
			c-0.3-0.4-0.7-0.8-1-1.2c-0.9-1.1-1.9-2.2-2.9-3.2c-11.3-11.7-26.7-19.3-44.1-20.4c-17.5-1.1-34,4.6-46.6,14.9
			c-3,2.4-5.7,5-8.2,7.9C63,50.1,56.9,64,55.9,79.4c-0.7,10.7,1.3,20.9,5.1,30.1c-19.8-12-46.6-0.8-57.6-7
			c11.2,19.8,8.5,24,28.1,46.1c13.1,14.8,26,16.5,34.9,14.6c16.7,18.3,32.7,47.4,31.1,72.4l3.3-1.6c0,0,4-28.5,9.8-36.6
			c10.1-14.2,18.4-21.9,35-26.1 M185.5,73.4c0.1,0.4,0.1,0.7,0.2,1.1l-0.4-0.9L185.5,73.4z M180.9,59.6l0.4-0.4
			c0.5,1,0.9,2.1,1.3,3.1l-0.6,0l-1.2,0.1C180.7,62.4,180.9,59.6,180.9,59.6z M171.9,47.3l0.2-3c1,1.2,1.9,2.4,2.8,3.7l-1.3,1.7
			l-4.2-0.3l-0.2-0.9L171.9,47.3z M91.2,34.7l0-0.1l1.3,0.1l0.1-0.5l2.2,0.1l-0.1,1l-0.7,0.8l-3-0.2L91.2,34.7z M93.2,37.8
			c0,0,1.4-0.1,1.5-0.1c0.1,0-0.1,1.3-0.1,1.3l-3.1,0L91,38.3L93.2,37.8z M74.5,47.5l0,1.1l-2.8,3C72.6,50.1,73.6,48.8,74.5,47.5z
			 M69.3,56l-0.2,3.5l2.5,1.4l-0.3,4.9l2.2,4.4l2,0.4l0.3-1.4l-2.1-3.8l-0.2-3.5l1.4,0.1l0.4,3.7l3.1,5.2l-1,1.6l2,3.4l5.3,1.7
			l0.1-0.9l2.1,0.5l-0.3,1.5l1.7,0.4l2.6,0.9l3.4,4.4l4.7,0.7l0.2,3.9l-3.4,2l-0.4,3.4l-0.6,2.1l4.3,6.1l0.2,2c0,0,1.7,0.6,1.9,0.6
			c0.2,0,3.6,3,3.6,3l-0.7,10.6l1.3,0.4l-1.2,4.8l2,3l-0.7,4.8l2.5,5.2l3.4,3.4l3.7,0.3l0.4-1.2l-2.5-2.4l0.2-1.1l0.6-1.3l0.2-1.4
			L112,133l-0.8-1.2l1.6-1.4l0.3-1.1l-1.7-0.6l0.2-1l2.4-0.2l3.8-1.5l1.4-2.2l4.1-4.7l-0.6-3.9l1.3-2l3.5,0.3l2.5-1.7l1.3-7.4
			l2.9-3.2l0.6-2.1l-2.4-0.9l-1.4-2.7l-5.4-0.4l-4.2-1.9l0-3.1l-1.3-2.6l-3.9-0.3l-2.1-3.7l-1.9-1.1l-0.2,1.1l-3.7,0l-1.2-1.9
			l-3.7-1l-3.4,3.4l-4.9-1.2l0-5.6l-3.6-0.8l1.6-2.6l-0.3-1.6L87.9,75L85,74.4L84.1,72l0.8-2.4l1.8-2.9l3.9-1.7l7.3,0.5l-0.2,2.2
			l2.5,1.4l0-3.8l2-1.8l4-2.3l0.4-1.7l4.1-3.7l4.2-2l-0.3-0.3l2.9-2.4l1,0.3l0.4,0.6l1.1-1.1l0.3-0.1l-1.1-0.2l-1.1-0.5l0.1-1.1
			l0.6-0.5l1.3,0.1l0.6,0.3l0.5,1.1l0.7-0.1l0-0.1l0.2,0.1l1.9-0.2l0.3-0.9l1.1,0.3l-0.1,1l-1,0.6l0.1,1.1l3.4,1.3c0,0,0,0,0,0
			l0.8,0l0.1-1.5l-2.6-1.4l-0.1-0.7l2.3-0.6l0.2-2.2l-2.3-1.6l0.1-3.6l-3.3,1.4l-1.2-0.1l0.5-2.8l-4.3-1.3l-1.9,1.3l-0.3,4.2
			l-3.3,0.8l-1.5,2.7l-1.4,0.1l0.2-3.5l-3.1-0.6l-1.5-1.1l-0.5-2.3l5.7-2.9L113,37l0.2,1.8l1.5,0l0.2-0.9l1.6-0.1l0.1-0.3l-0.7-0.3
			l-0.1-1l1.9,0l1.2-1.1L119,35l0,0l0.4-0.3l4.1-0.3l1.7,1.6l-4.8,2.2l5.9,1.8l0.9-2l2.6,0.2l1-1.7l-1.8-0.6l0.1-2.2l-5.6-2.9
			l-4,0.2l-2.3,1.1l0,2.9l-2.4-0.5l-0.3-1.6l2.4-1.9l-4.1-0.5l-1.2,0.3l-0.6,1.4l1.5,0.3L112,34l-2.6,0l-0.5,1l-3.8-0.1
			c0,0,0-2.2-0.1-2.2s3,0.1,3,0.1l2.4-2.1l-1.2-0.7l-1.7,1.5l-2.7-0.3l-1.5-2.4l-3.5-0.2l-3.8,2.5l3.3,0.2l0.2,1l-0.9,0.8l3.7,0.3
			l0.5,1.4l-4.1-0.4l-0.1-1l-2.6-0.7l-1.3-0.9l-3.1-0.2c10.7-6.8,23.5-10.4,37-9.5c15.6,1,29.5,7.7,39.8,18l-0.8,1.3l-2.9,0.9
			l-1.3,1.2l0.2,1.5l1.4,0.3l0.7,2.3l2.6-0.9l0.2,3l-0.8,0l-2.1-0.4l-2.3,0.2l-2.4,3l-3.2,0.3l-0.6,2.7l1.3,0.4l-0.5,1.7l-3.1-0.8
			l-3,0.4l-0.7,1.6l0.3,3.4l1.7,0.9l2.9,0.2l1.9-0.1l0.7-1.5l3.3-3.7l1.9,0.5l2.1-1.6l0.3,1.4l4.6,3.6l-0.6,0.7l-2.1-0.2l0.8,1.2
			l1.3,0.4l1.6-0.6l0.1-1.9l0.7-0.3l-0.5-0.6l-3.1-2l-0.7-2.4l2.7,0.2l0.8,0.9l2.2,2.1l-0.1,2.4l2.2,2.7l1.1-3.4l1.7-0.8l0.1,2.9
			l1.5,1.9l3.2,0.2c0.5,1.6,1,3.3,1.4,5l-0.4,0.3l-4.9-0.3l-2.9-2.4l-3.2,0.1l-0.1,1.9l-1-0.1l-1-0.8l-5.4-1.7l0.2-3.5l-7,0.1
			l-2.2,1l-2.7-0.2l-1.3-0.2l-3.4,1.6l-0.2,3.5l-7.1,4.5l0.4,2.1l1.4,0.1l-0.5,2l-1,0.3l-0.4,5.2l5.5,7.1l2.6,0.2l0.2-0.4l4.6,0.3
			l1.4-1.1l2.6,0.2l1.3,1.5l3.9,0.6l-0.8,5.2l3.8,7.9l-2.5,4.2l0,2.1l1.7,1.9l-0.3,4.9l2.1,3.3l-0.3,4.1l2,0.1
			c-12.2,13.2-30,21-49.3,19.8c-34-2.2-60-31.6-57.8-65.6C63.4,71.3,65.6,63.2,69.3,56z M96.3,45.1l1.7-0.7l1.4,0.4l-0.6,1.9
			l-1.6,0.4L96.3,45.1z M104.6,50.3l-0.1,1.3l-3.7-0.2l-1.4-0.5l0.4-0.9l1.8-0.6l2.4,0.2l0,0.7L104.6,50.3z M106.2,52.2l-0.1,1.2
			l-1,0.5l-1.2,0.1c0,0,0.1-1.8,0.1-2C104.1,52,106.2,52.2,106.2,52.2z M105.2,51.6l0.1-1.5l1.2,1.2L105.2,51.6z M105.5,54.6
			l-0.1,1.2l-0.9,0.8l-2-0.1l0.4-1.3l0.9,0l0.2-0.5L105.5,54.6z M100.8,51.8l2,0.1l-2.8,3.5l-1-0.7l0.3-1.5L100.8,51.8z M109,54.4
			l-0.1,1.2l-2-0.1l-0.5-0.8l0.1-1.1l0.2,0L109,54.4z M107.3,52.6l0.6-0.6l0.9,0.6l-0.8,0.6L107.3,52.6z M97.7,232
			c0,0-0.1-0.2-0.1-0.3l0.8-0.7C98,231.5,97.7,232,97.7,232z M208.9,147.1c-2.3,0.8-5.7,1.9-9.7,3.1c-2,0.6-4.2,1.3-6.5,1.9
			c-2.3,0.6-4.7,1.3-7.2,2.1c-2.5,0.7-5.1,1.4-7.6,2.2c-2.6,0.7-5.2,1.5-7.9,2.4c-2.5,0.7-5.1,1.8-7.6,2.6c-2.5,1-6.8,2.2-9.3,3
			c-3,1-4.8,1.6-6.7,2.4c-21.2,10.6-39.4,22.4-46.3,44.4c0.3-21.1-11.6-33.9-25.8-49.9c0,0,0,0,0.1,0c-1.9-2-3.9-4.2-6-6.6
			c-1.7-2-3.5-4-5.2-6.1c-1.8-2-3.5-4.2-5.3-6.1c-1.9-2.1-3.8-4.1-5.7-6c-1.9-1.9-3.8-3.8-5.5-5.7c-1.8-1.9-3.6-3.7-5.3-5.4
			c-1.7-1.7-3.2-3.3-4.7-4.9c-2.9-3.1-5.3-5.6-6.9-7.5c-1.6-1.9-2.5-2.9-2.5-2.9s5,2.7,11.9,7.5c3.5,2.4,7.4,5.3,11.5,8.6
			c2.1,1.6,4.2,3.4,6.3,5.3c1.1,0.9,2.1,1.9,3.2,2.8l3,2.9c0.5,0.5,1,0.9,1.5,1.6l1.4,1.6c1,1.1,1.9,2.1,2.8,3.2
			c1.8,2.2,3.5,4.3,5,6.4c1.5,2.1,3,4.2,4.3,6.3c0.3,0.4,0.5,0.8,0.8,1.3c2.8-4,4.4-12.8,1.9-22.6c10.7,9.2,24.3,15.1,39.4,16
			c10.1,0.6,19.8-1,28.6-4.5c-3.6,5.6-5.3,11.2-4.9,14.8c0.5-0.2,0.9-0.5,1.3-0.7c2.1-1.1,4.5-2.2,6.9-3.3c2.4-1.1,4.9-2.1,7.5-3.1
			c1.3-0.5,2.7-0.9,4-1.4l2-0.7c0.9-0.3,1.4-0.4,2.1-0.6l4.1-1.1c1.4-0.3,2.8-0.6,4.2-0.9c2.7-0.6,5.4-1.1,8.1-1.4
			c5.2-0.9,10.1-1.4,14.3-1.8c8.4-0.7,14.1-0.6,14.1-0.6S211.2,146.3,208.9,147.1z"/>
		<polygon points="157.7,48.4 157.7,49.4 156.2,49.6 155.9,51.7 157.7,51.8 160.1,51.8 161.4,50.4 160.1,49.8 159.5,48.9 
			158.5,47.1 158.1,44.6 156.1,44.9 155.5,45.7 155.4,46.7 156.3,47.4 		"/>
		<polygon points="155.9,49.1 156.1,47.8 154.9,47.2 153.2,47.5 151.9,49.4 151.8,50.6 153.2,50.7 		"/>
		<path d="M121.4,52.6l-0.4,0.9l-1.8-0.1l-0.1,0.9l0.4,0c0,0,0,0.2,0,0.4l1.1,0l0.7-0.4l0.2-0.8l0.9,0l0.4-0.7l-0.8-0.2L121.4,52.6
			C121.4,52.6,121.4,52.6,121.4,52.6z"/>
		<polygon points="116.7,53.9 116.6,54.8 117.9,54.8 118.1,53.9 117.3,53.3 		"/>
	</g>
</g>
</svg>
