<?xml version="1.0" encoding="utf-8"?>
<!-- Generator: Adobe Illustrator 23.0.1, SVG Export Plug-In . SVG Version: 6.00 Build 0)  -->
<svg version="1.1" id="Layer_1" xmlns="http://www.w3.org/2000/svg" xmlns:xlink="http://www.w3.org/1999/xlink" x="0px" y="0px"
	 viewBox="0 0 240 240" style="enable-background:new 0 0 240 240;" xml:space="preserve">
<g>
	<g>
		<path d="M70.9,102.3c14.9,0,26.9-12,26.9-26.9c0-9.3,3.3-17.8-3.9-22.6c-4.3-2.9-23.2-4.3-28.7-4.3c-6.6,0-15.2,5.4-19.9,9.4
			c-5.8,4.9-1.2,9.3-1.2,17.5C44,90.2,56,102.3,70.9,102.3z M52.1,72.7c4.9-0.9,8.3,0.7,8.3,0.7l8.3-4c0,0-4.2,6.1-0.4,4
			c8.4-2.8,17.8-1.6,22.6-0.7c0.2,1,0.3,2.1,0.3,3.2c0,11.1-8.8,20-19.7,20c-10.9,0-19.7-9-19.7-20C51.8,74.9,51.9,73.8,52.1,72.7z"
			/>
		<path d="M202.1,71.6c-0.1-1.5-0.3-3.1-0.6-4.5c-1.1-9.4-9.5-28.6-33.7-28c-20.9,0.5-25.4,16.2-26.5,25.8c-0.7,2.3-1.2,4.8-1.4,7.4
			c-27.2,4.7-24.2,32.3-7.6,32.8c-1.6-14.4,5.3-23,7.9-25.8c2.4,14.9,15.3,26.3,30.8,26.3c14.7,0,27-10.3,30.4-24
			c2.5,4.5,6.8,13.7,5.8,23.5C233.3,104.7,220.5,74.9,202.1,71.6z M171.1,96.5c-12.2,0-22.1-9.8-22.4-22c4.5-1.6,7.8-9.3,7.8-9.3
			s2.6,0.9,2.6,9.6c4.6,1.6,12.7-13.5,12.7-13.5v11.9c5.1,1.4,21.2-0.5,21.2-0.5l0.6,0.5c0,0.3,0.1,0.5,0.1,0.8
			C193.6,86.5,183.5,96.5,171.1,96.5z"/>
		<polygon points="177.6,106.2 164.4,106.2 153.4,106.2 121.1,145.1 89.8,106.7 54.2,106.7 17,147.6 24.8,155.6 51.5,132.9 
			51.5,177 56.8,177 56.8,210.5 53.4,210.5 53.4,214.5 68.9,214.5 68.9,210.5 68.9,177 74.7,177 74.7,210.5 74.7,214.5 90.1,214.5 
			90.1,210.5 86.7,210.5 86.7,177 93.2,177 93.2,133.7 114.5,155.6 123.3,153.4 128.1,154.6 152.2,127 153.6,138 131.2,176.5 
			157,176.5 157,210 153.6,210 153.6,213.9 169.1,213.9 169.1,210 169.1,210 169.1,176.5 174.9,176.5 174.9,210 174.9,213.9 
			190.4,213.9 190.4,210 187,210 187,176.5 207,176.5 187.3,138 188.3,124.5 207.2,149.8 219.7,146.7 189.8,106.2 		"/>
	</g>
</g>
</svg>
