<?xml version="1.0" encoding="utf-8"?>
<!-- Generator: Adobe Illustrator 23.0.1, SVG Export Plug-In . SVG Version: 6.00 Build 0)  -->
<svg version="1.1" id="Layer_1" xmlns="http://www.w3.org/2000/svg" xmlns:xlink="http://www.w3.org/1999/xlink" x="0px" y="0px"
	 viewBox="0 0 240 240" style="enable-background:new 0 0 240 240;" xml:space="preserve">
<g>
	<g>
		<path d="M93.9,114.4c0,2-1.6,3.6-3.6,3.6H76.9c-2,0-3.6-1.6-3.6-3.6V101c0-2,1.6-3.6,3.6-3.6h13.4c2,0,3.6,1.6,3.6,3.6V114.4z
			 M121.9,101.1c0-2-1.6-3.6-3.6-3.6h-13.4c-2,0-3.6,1.6-3.6,3.6v13.4c0,2,1.6,3.6,3.6,3.6h13.4c2,0,3.6-1.6,3.6-3.6V101.1z
			 M150,101.1c0-2-1.6-3.6-3.6-3.6H133c-2,0-3.6,1.6-3.6,3.6v13.4c0,2,1.6,3.6,3.6,3.6h13.4c2,0,3.6-1.6,3.6-3.6V101.1z M93.9,128.3
			c0-2-1.6-3.6-3.6-3.6H76.9c-2,0-3.6,1.6-3.6,3.6v13.4c0,2,1.6,3.6,3.6,3.6h13.4c2,0,3.6-1.6,3.6-3.6V128.3z M121.9,128.3
			c0-2-1.6-3.6-3.6-3.6h-13.4c-2,0-3.6,1.6-3.6,3.6v13.4c0,2,1.6,3.6,3.6,3.6h13.4c2,0,3.6-1.6,3.6-3.6V128.3z M146.4,124.8H133
			c-2,0-3.6,1.6-3.6,3.6v13.4c0,2,1.6,3.6,3.6,3.6h13.4c2,0,3.6-1.6,3.6-3.6v-13.4C150,126.3,148.4,124.8,146.4,124.8z M62.3,152
			H48.9c-2,0-3.6,1.6-3.6,3.6V169c0,2,1.6,3.6,3.6,3.6h13.4c2,0,3.6-1.6,3.6-3.6v-13.4C65.9,153.6,64.3,152,62.3,152z M65.9,128.3
			c0-2-1.6-3.6-3.6-3.6H48.9c-2,0-3.6,1.6-3.6,3.6v13.4c0,2,1.6,3.6,3.6,3.6h13.4c2,0,3.6-1.6,3.6-3.6V128.3z M118.4,152h-13.4
			c-2,0-3.6,1.6-3.6,3.6V169c0,2,1.6,3.6,3.6,3.6h13.4c2,0,3.6-1.6,3.6-3.6v-13.4C121.9,153.6,120.3,152,118.4,152z M90.3,152H76.9
			c-2,0-3.6,1.6-3.6,3.6V169c0,2,1.6,3.6,3.6,3.6h13.4c2,0,3.6-1.6,3.6-3.6v-13.4C93.9,153.6,92.3,152,90.3,152z M174.4,118.1
			c2,0,3.6-1.6,3.6-3.6v-13.4c0-2-1.6-3.6-3.6-3.6H161c-2,0-3.6,1.6-3.6,3.6v13.4c0,2,1.6,3.6,3.6,3.6H174.4z M36.5,201.7h101.8
			c-1.6-5.1-2.6-10.6-2.6-16.2H36.5c-2.6,0-4.8-2.2-4.8-4.8V84.8h159.6v44.6c5.6,0,11.1,0.9,16.2,2.5V51.2c0-11.6-9.4-21-21-21H163
			v-13c0-4.2-3.4-7.7-7.7-7.7h-12c-4.2,0-7.7,3.4-7.7,7.7v13H87.4v-13c0-4.2-3.4-7.7-7.7-7.7h-12c-4.2,0-7.7,3.4-7.7,7.7v13H36.5
			c-11.6,0-21,9.4-21,21v129.4C15.5,192.3,24.9,201.7,36.5,201.7z M231.3,184.9c0,22.2-18,40.2-40.2,40.2s-40.2-18-40.2-40.2
			s18-40.2,40.2-40.2S231.3,162.7,231.3,184.9z M211.4,174.4c0-1.3-0.5-2.5-1.4-3.4c-1.9-1.9-4.9-1.9-6.8,0l-17.5,17.5l-6.7-6.7
			c-1.9-1.9-4.9-1.9-6.8,0c-0.9,0.9-1.4,2.1-1.4,3.4c0,1.3,0.5,2.5,1.4,3.4l10.1,10.1c1.9,1.9,4.9,1.9,6.8,0l20.9-20.9
			C210.9,177,211.4,175.7,211.4,174.4z"/>
	</g>
</g>
</svg>
