<?xml version="1.0" encoding="utf-8"?>
<!-- Generator: Adobe Illustrator 23.0.1, SVG Export Plug-In . SVG Version: 6.00 Build 0)  -->
<svg version="1.1" id="Layer_1" xmlns="http://www.w3.org/2000/svg" xmlns:xlink="http://www.w3.org/1999/xlink" x="0px" y="0px"
	 viewBox="0 0 240 240" style="enable-background:new 0 0 240 240;" xml:space="preserve">
<style type="text/css">
	.st0{fill:none;stroke:#000000;stroke-width:12;stroke-miterlimit:10;}
	.st1{stroke:#000000;stroke-width:3;stroke-miterlimit:10;}
</style>
<ellipse class="st0" cx="119.7" cy="118.8" rx="110.5" ry="110"/>
<line class="st0" x1="30.6" y1="58" x2="212.5" y2="179.3"/>
<path class="st1" d="M173.1,40.4c-0.9-1-2.5-1.1-3.6-0.2c-6.9,6.3-18,18.2-31.4,39.4c-5.6,8.9-9.9,16.5-11.9,20.3
	c-1-0.5-2.2-0.8-3.4-0.8c-1.2,0-2.4,0.3-3.4,0.8c-2-3.8-6.2-11.4-11.9-20.3C94,58.4,83,46.5,76.1,40.2c-1-0.9-2.6-0.9-3.6,0.2
	c-0.9,1-0.8,2.6,0.2,3.6c21.1,19.2,39.6,53.3,43,59.7c-0.5,1-0.8,2.2-0.8,3.4v5.2c-0.5,0.7-0.9,1.5-1.2,2.3l-8.2-4.1l-6.2-6.2
	c-1.5-1.5-3.5-2.3-5.6-2.3c-1.4,0-2.5,1.1-2.5,2.5s1.1,2.5,2.5,2.5c0.8,0,1.5,0.3,2,0.8l6.5,6.5c0.2,0.2,0.4,0.4,0.7,0.5l9.4,4.7
	c0,0.4-0.1,0.8-0.1,1.1c0,1.1,0.1,2,0.4,2.9h-6c-0.5,0-0.9,0.1-1.3,0.4l-11.5,7c-0.9,0.5-1.8,0.8-2.9,0.8h-5.8
	c-1.4,0-2.5,1.1-2.5,2.5s1.1,2.5,2.5,2.5H91c1.9,0,3.8-0.5,5.4-1.5l10.9-6.6h6.2c-2.4,4.6-3.5,10.7-3.8,17.2l-4.7,1.6
	c-2.1,0.7-3.6,2.7-3.6,5v22.9c0,1.2-0.2,2.4-0.6,3.5l-4.7,14.2c-0.4,1.3,0.3,2.8,1.6,3.2c0.3,0.1,0.5,0.1,0.8,0.1
	c1.1,0,2-0.7,2.4-1.7l4.7-14.2c0.5-1.6,0.8-3.4,0.8-5.1v-22.9c0-0.1,0-0.1,0.1-0.2l2.9-1c0,9.1,1.2,18.4,2.3,25.3
	c0.9,5.2,5.3,8.9,10.6,8.9h0.5c5.3,0,9.8-3.8,10.6-8.9c1.1-6.9,2.3-16.2,2.3-25.3l2.9,1c0.1,0,0.1,0.1,0.1,0.2v22.9
	c0,1.7,0.3,3.4,0.8,5.1l4.7,14.2c0.4,1.1,1.3,1.7,2.4,1.7c0.3,0,0.5,0,0.8-0.1c1.3-0.4,2-1.9,1.6-3.2l-4.7-14.2
	c-0.4-1.1-0.6-2.3-0.6-3.5v-22.9c0-2.3-1.4-4.3-3.6-5l-4.7-1.6c-0.4-6.5-1.5-12.6-3.8-17.2h6.2l10.9,6.6c1.6,1,3.5,1.5,5.4,1.5h5.8
	c1.4,0,2.5-1.1,2.5-2.5s-1.1-2.5-2.5-2.5h-5.8c-1,0-2-0.3-2.9-0.8l-11.5-7c-0.4-0.2-0.8-0.4-1.3-0.4h-6c0.3-0.9,0.4-1.8,0.4-2.9
	c0-0.4,0-0.7-0.1-1.1l9.4-4.7c0.2-0.1,0.5-0.3,0.7-0.5l6.5-6.5c0.5-0.5,1.3-0.8,2-0.8c1.4,0,2.5-1.1,2.5-2.5s-1.1-2.5-2.5-2.5
	c-2.1,0-4.1,0.8-5.6,2.3l-6.2,6.2l-8.2,4.1c-0.4-0.8-0.8-1.5-1.2-2.3v-5.2c0-1.2-0.3-2.4-0.8-3.4c3.3-6.3,21.8-40.5,43-59.7
	C173.9,43.1,174,41.5,173.1,40.4z M122.8,123.5c-5.5,0-5.5-1.6-5.5-2.9c0-3.4,2.9-8.3,5.5-8.3c2.7,0,5.5,4.9,5.5,8.3
	C128.3,121.9,128.3,123.5,122.8,123.5z M125.6,107.1v0.7c-0.9-0.4-1.8-0.6-2.9-0.6c-1,0-2,0.2-2.9,0.6v-0.7c0-1.6,1.3-2.9,2.9-2.9
	C124.4,104.2,125.6,105.5,125.6,107.1z M128.7,175.6c-0.4,2.7-2.8,4.7-5.7,4.7h-0.5c-2.8,0-5.2-2-5.7-4.7
	c-3.8-23.3-2.8-40.8,2.8-47.3c1,0.1,2,0.2,3.1,0.2s2.2-0.1,3.1-0.2C131.5,134.8,132.5,152.4,128.7,175.6z"/>
</svg>
