<?xml version="1.0" encoding="utf-8"?>
<!-- Generator: Adobe Illustrator 23.0.1, SVG Export Plug-In . SVG Version: 6.00 Build 0)  -->
<svg version="1.1" id="Layer_1" xmlns="http://www.w3.org/2000/svg" xmlns:xlink="http://www.w3.org/1999/xlink" x="0px" y="0px"
	 viewBox="0 0 430 106.4" style="enable-background:new 0 0 430 106.4;" xml:space="preserve">
<style type="text/css">
	.st0{fill:#FFFFFF;}
</style>
<path class="st0" d="M111.4,95.4c-3.5,0-7,0-10.6,0c0-4.8,0-9.6,0-14.4c-2.5,0-5,0-7.5,0c0,0.4-0.1,0.8-0.1,1.2c0,4,0,8,0,12
	c0,0.3,0,0.6,0,0.8c0,0.1-0.3,0.3-0.4,0.3c-0.1,0-0.3-0.2-0.4-0.4c-0.1-0.3,0-0.6,0-1c0-3.9,0-7.9,0-11.8c0-0.4,0-0.9,0-1.4
	c-2.6,0-5.1,0-7.7,0c0,4.8,0,9.6,0,14.4c-3.5,0-6.9,0-10.3,0c0-23.5,0-47,0-70.6c12.3,0,24.6,0,37,0
	C111.4,48.3,111.4,71.8,111.4,95.4z M90.7,51.5c0-4.1,0-8.1,0-12.1c0-2.2-1-3.7-3-4.5c-3-1.2-6.4,1-6.4,4.3c0,3.7,0,7.4,0,11.1
	c0,0.4,0,0.8,0.1,1.3C84.4,51.5,87.5,51.5,90.7,51.5z M104.6,73.2c0-4.1-0.1-8.1,0-12c0.1-2.2-1.1-3.5-2.8-4.4
	c-3-1.5-6.7,0.8-6.7,4.1c0,3.7,0,7.4,0,11.1c0,0.4,0,0.8,0,1.3C98.4,73.2,101.4,73.2,104.6,73.2z M95.2,51.6c3.2,0,6.3,0,9.3,0
	c0-0.2,0.1-0.2,0.1-0.3c0-3.9,0-7.8,0-11.7c0-2.2-1.1-3.8-3.1-4.6c-2.4-0.9-6.2,0.9-6.3,3.3C95.1,42.7,95.2,47.1,95.2,51.6z
	 M90.7,72.9c0-4.1,0-8.1,0-12c0-2.2-1-3.7-3-4.5c-2.5-1.1-6.4,1-6.4,3.5c-0.1,4.2,0,8.4,0,12.6c0,0.1,0.1,0.3,0.1,0.5
	C84.4,72.9,87.5,72.9,90.7,72.9z"/>
<path class="st0" d="M0.6,24.6c12.3,0,24.6,0,36.9,0c0,23.5,0,47.1,0,70.6c-3.4,0-6.9,0-10.5,0c0-4.8,0-9.5,0-14.4
	c-2.5,0-4.9,0-7.5,0c0,0.4,0,0.8,0,1.2c0,3.9,0,7.9,0,11.8c0,0.2,0.1,0.5,0,0.7c-0.1,0.2-0.3,0.5-0.4,0.7c-0.1-0.2-0.3-0.5-0.4-0.8
	c-0.1-0.2,0-0.5,0-0.7c0-3.9,0-7.7,0-11.6c0-0.4,0-0.9,0-1.4c-2.6,0-5.2,0-7.9,0c0,4.7,0,9.5,0,14.4c-3.5,0-6.9,0-10.3,0
	C0.6,71.7,0.6,48.2,0.6,24.6z M16.9,51.4c0-4.1-0.1-8,0-11.9c0.1-2.3-1.1-3.6-2.9-4.5c-2.9-1.5-6.7,0.8-6.7,4.1c0,3.7,0,7.4,0,11.1
	c0,0.4,0,0.9,0.1,1.3C10.6,51.4,13.7,51.4,16.9,51.4z M16.9,72.7c0-0.5,0-0.9,0-1.4c0-3.6-0.1-7.2,0-10.8c0-1.4-0.5-2.5-1.5-3.4
	c-1.5-1.4-3.3-1.8-5.2-0.8c-1.8,0.9-2.9,2.2-2.9,4.4c0.1,3.5,0,7.1,0,10.6c0,0.4,0,0.9,0,1.4C10.6,72.7,13.7,72.7,16.9,72.7z
	 M30.9,73.1c0-0.4,0.1-0.7,0.1-0.9c0-3.8,0-7.6,0-11.4c0-1.2-0.4-2.1-1.1-2.9c-1.4-1.5-3.5-2.1-5.4-1.4c-1.9,0.8-3,2.4-3,4.5
	c0,3.6,0,7.2,0,10.8c0,0.4,0,0.8,0,1.3C24.7,73.1,27.8,73.1,30.9,73.1z M31,51.5c0-0.5,0-0.9,0-1.4c0-3.5-0.1-7.1,0-10.6
	c0.1-2.3-1.1-3.7-3-4.6c-2.8-1.3-6.5,1-6.5,4.2c0,3.7,0,7.4,0,11.1c0,0.4,0,0.9,0,1.3C24.7,51.5,27.8,51.5,31,51.5z"/>
<path class="st0" d="M69.8,95.6c-9.4,0-18.6,0-28,0c0-0.4-0.1-0.8-0.1-1.2c0-22.7,0-45.4,0-68.1c0-0.8,0.3-1.4,0.9-1.9
	c4.1-3.3,8.2-6.6,12.3-9.9c0.6-0.5,1-0.5,1.6,0c4.2,3.4,8.3,6.7,12.5,10c0.4,0.3,0.8,1,0.8,1.6c0,22.8,0,45.7,0,68.5
	C69.8,94.9,69.8,95.2,69.8,95.6z M45,84.2c2.1,0,4.2,0,6.2,0c0-2.3,0-4.5,0-6.7c-2.1,0-4.1,0-6.2,0C45,79.8,45,81.9,45,84.2z
	 M58.8,77.5c-2.1,0-4.1,0-6.1,0c0,2.3,0,4.5,0,6.7c2.1,0,4.1,0,6.1,0C58.8,81.9,58.8,79.7,58.8,77.5z M60.4,77.5c0,2.3,0,4.5,0,6.8
	c2.1,0,4.1,0,6.1,0c0-2.3,0-4.5,0-6.8C64.4,77.5,62.4,77.5,60.4,77.5z M58.8,47.5c0-2.3,0-4.5,0-6.7c-2.1,0-4.1,0-6.1,0
	c0,2.3,0,4.5,0,6.7C54.7,47.5,56.7,47.5,58.8,47.5z M60.4,47.4c2.1,0,4.1,0,6.2,0c0-2.3,0-4.4,0-6.7c-2.1,0-4.1,0-6.2,0
	C60.4,43,60.4,45.2,60.4,47.4z M45,40.7c0,2.3,0,4.5,0,6.7c2.1,0,4.1,0,6.2,0c0-2.3,0-4.4,0-6.7C49.1,40.7,47,40.7,45,40.7z
	 M51.2,59.2c-2.1,0-4.2,0-6.2,0c0,2.3,0,4.4,0,6.6c2.1,0,4.1,0,6.2,0C51.2,63.5,51.2,61.4,51.2,59.2z M58.8,59.1c-2.1,0-4.1,0-6.2,0
	c0,2.2,0,4.4,0,6.7c2.1,0,4.1,0,6.2,0C58.8,63.5,58.8,61.4,58.8,59.1z M66.6,59.2c-2.1,0-4.1,0-6.2,0c0,2.2,0,4.4,0,6.6
	c2.1,0,4.1,0,6.2,0C66.6,63.6,66.6,61.4,66.6,59.2z M60.3,76.8c2.1,0,4.2,0,6.2,0c0-1.7,0-3.2,0-4.8c-2.1,0-4.1,0-6.2,0
	C60.3,73.6,60.3,75.1,60.3,76.8z M58.8,72c-2.1,0-4.1,0-6.2,0c0,1.6,0,3.2,0,4.8c2.1,0,4.1,0,6.2,0C58.8,75.1,58.8,73.6,58.8,72z
	 M45,76.8c2.1,0,4.1,0,6.2,0c0-1.6,0-3.2,0-4.8C49,72,47,72,45,72C45,73.6,45,75.2,45,76.8z M66.6,53.6c-2.2,0-4.2,0-6.2,0
	c0,1.6,0,3.2,0,4.7c2.1,0,4.1,0,6.2,0C66.6,56.7,66.6,55.2,66.6,53.6z M58.8,53.6c-2.2,0-4.2,0-6.2,0c0,1.6,0,3.2,0,4.7
	c2.1,0,4.1,0,6.2,0C58.8,56.7,58.8,55.2,58.8,53.6z M51.2,58.3c0-1.6,0-3.1,0-4.7c-2.1,0-4.2,0-6.2,0c0,1.6,0,3.1,0,4.7
	C47,58.3,49.1,58.3,51.2,58.3z M66.6,35.2c-2.2,0-4.2,0-6.2,0c0,1.7,0,3.2,0,4.8c2.1,0,4.1,0,6.2,0C66.6,38.4,66.6,36.8,66.6,35.2z
	 M58.8,35.2c-2.1,0-4.1,0-6.2,0c0,1.7,0,3.2,0,4.7c2.1,0,4.1,0,6.2,0C58.8,38.3,58.8,36.8,58.8,35.2z M45,35.2c0,1.7,0,3.2,0,4.8
	c2.1,0,4.1,0,6.2,0c0-1.6,0-3.2,0-4.8C49.1,35.2,47,35.2,45,35.2z"/>
<path class="st0" d="M142,96.2c-9.4,0-18.7,0-28.1,0c0-0.4-0.1-0.8-0.1-1.2c0-22.7,0-45.4,0-68.2c0-0.9,0.3-1.4,0.9-1.9
	c4-3.2,8.1-6.5,12.1-9.8c0.7-0.6,1.1-0.7,1.9,0c4.1,3.3,8.3,6.6,12.4,9.9c0.6,0.5,0.8,1,0.8,1.7c0,22.8,0,45.5,0,68.3
	C142,95.4,142,95.7,142,96.2z M124.6,78c0,2.3,0,4.5,0,6.8c2.1,0,4.1,0,6.2,0c0-2.3,0-4.5,0-6.8C128.7,78,126.6,78,124.6,78z
	 M130.8,48c0-2.3,0-4.5,0-6.7c-2.1,0-4.1,0-6.2,0c0,2.3,0,4.5,0,6.7C126.7,48,128.7,48,130.8,48z M130.8,66.4c0-2.3,0-4.5,0-6.7
	c-2.1,0-4.1,0-6.2,0c0,2.3,0,4.4,0,6.7C126.7,66.4,128.7,66.4,130.8,66.4z M117,78c0,2.3,0,4.5,0,6.8c2.1,0,4.1,0,6.2,0
	c0-2.3,0-4.5,0-6.8C121.1,78,119.1,78,117,78z M138.5,84.8c0-2.3,0-4.5,0-6.8c-2.1,0-4.1,0-6.2,0c0,2.3,0,4.5,0,6.8
	C134.5,84.8,136.5,84.8,138.5,84.8z M117,48c2.2,0,4.2,0,6.2,0c0-2.3,0-4.5,0-6.7c-2.1,0-4.1,0-6.2,0C117,43.6,117,45.7,117,48z
	 M138.5,48c0-2.3,0-4.5,0-6.7c-2.1,0-4.1,0-6.2,0c0,2.3,0,4.5,0,6.7C134.4,48,136.5,48,138.5,48z M117,59.7c0,2.3,0,4.5,0,6.7
	c2.1,0,4.1,0,6.2,0c0-2.3,0-4.4,0-6.7C121.1,59.7,119.1,59.7,117,59.7z M138.6,66.3c0-2.3,0-4.4,0-6.6c-2.1,0-4.2,0-6.2,0
	c0,2.2,0,4.4,0,6.6C134.4,66.3,136.5,66.3,138.6,66.3z M124.6,72.5c0,1.7,0,3.2,0,4.8c2.1,0,4.1,0,6.2,0c0-1.7,0-3.2,0-4.8
	C128.7,72.5,126.7,72.5,124.6,72.5z M132.3,77.3c2.1,0,4.2,0,6.2,0c0-1.7,0-3.2,0-4.8c-2.1,0-4.1,0-6.2,0
	C132.3,74.2,132.3,75.7,132.3,77.3z M123.2,72.5c-2.1,0-4.1,0-6.2,0c0,1.6,0,3.2,0,4.8c2.1,0,4.1,0,6.2,0
	C123.2,75.7,123.2,74.1,123.2,72.5z M124.6,54.2c0,1.6,0,3.1,0,4.7c2.1,0,4.1,0,6.2,0c0-1.6,0-3.2,0-4.7
	C128.7,54.2,126.6,54.2,124.6,54.2z M130.8,40.6c0-1.6,0-3.2,0-4.8c-2.1,0-4.2,0-6.2,0c0,1.7,0,3.2,0,4.8
	C126.6,40.6,128.6,40.6,130.8,40.6z M138.6,54.2c-2.1,0-4.1,0-6.2,0c0,1.6,0,3.1,0,4.7c2.1,0,4.1,0,6.2,0
	C138.6,57.3,138.6,55.8,138.6,54.2z M138.5,35.8c-2.1,0-4.1,0-6.2,0c0,1.6,0,3.2,0,4.8c2.1,0,4.1,0,6.2,0
	C138.5,38.9,138.5,37.4,138.5,35.8z M123.2,40.6c0-1.7,0-3.2,0-4.8c-2.1,0-4.1,0-6.2,0c0,1.6,0,3.2,0,4.8
	C119.1,40.6,121.1,40.6,123.2,40.6z M117,54.1c0,1.6,0,3.2,0,4.7c2.1,0,4.1,0,6.2,0c0-1.6,0-3.2,0-4.7
	C121.1,54.1,119.1,54.1,117,54.1z"/>
<path class="st0" d="M36.5,22.4c2.7-2.2,5.5-4.5,8.2-6.7c3.5-2.8,6.9-5.6,10.4-8.4c0.5-0.4,0.9-0.6,1.5-0.1c6.2,5,12.3,10,18.5,15
	c0.1,0.1,0.2,0.2,0.5,0.5c-1.8,0-3.5,0.1-5.1,0c-0.5,0-1-0.5-1.4-0.8c-4.4-3.5-8.7-7.1-13.2-10.7c-0.9,0.7-1.8,1.4-2.7,2.2
	c-3.6,2.9-7.1,5.9-10.7,8.7c-0.5,0.4-1.2,0.6-1.8,0.6c-1.3,0.1-2.7,0-4.1,0C36.5,22.6,36.5,22.5,36.5,22.4z"/>
<path class="st0" d="M127.5,11.1c-4.4,3.6-8.7,7-12.9,10.5c-0.9,0.8-1.9,1.2-3.1,1.1c-1.1-0.1-2.2,0-3.6,0c0.3-0.3,0.4-0.5,0.6-0.7
	c6.1-4.9,12.2-9.8,18.2-14.8c0.5-0.4,0.8-0.7,1.4-0.1c6.1,5,12.2,10,18.4,15c0.1,0.1,0.3,0.2,0.3,0.4c-2.4,0-4.8,0.8-7.1-1.2
	C135.9,17.7,131.6,14.5,127.5,11.1z"/>
<g>
	<g>
		<path class="st0" d="M158.5,73.6l15.4,0l0,3.1l-12,0l0,6.1l10.3,0l0,2.9l-10.3,0l0,6.2l12,0l0,3.1l-15.4,0L158.5,73.6z"/>
		<path class="st0" d="M182.8,94.9l-3.9,0l6.9-10.9l-6.5-10.4l3.9,0l4.5,7.4l4.5-7.4l3.9,0L189.6,84l6.9,10.9l-3.9,0l-4.9-7.9
			L182.8,94.9z"/>
		<path class="st0" d="M207.1,76.4l-6.2,0l0-2.9l15.8,0l0,2.9l-6.2,0l0,18.4l-3.4,0L207.1,76.4z"/>
		<path class="st0" d="M222.7,73.6l14.4,0l0,3.1l-11,0l0,6.1l9.4,0l0,2.9l-9.4,0l0,6.2l11,0l0,3.1l-14.4,0L222.7,73.6z"/>
		<path class="st0" d="M243.4,73.5l8.8,0c1.9,0,3.4,0.5,4.6,1.4c1.4,1.1,2.2,2.6,2.2,4.5c0,2.9-1.5,4.9-4.4,5.9l5.2,9.4l-4.1,0
			l-4.7-9.1l-4.4,0l0,9.1l-3.4,0L243.4,73.5z M246.9,82.8l5.2,0c1.3,0,2.2-0.4,2.9-1.1c0.6-0.6,0.9-1.4,0.9-2.3
			c0-1.1-0.4-1.9-1.1-2.4c-0.6-0.4-1.4-0.7-2.5-0.7l-5.4,0L246.9,82.8z"/>
		<path class="st0" d="M266.1,73.5l3.2,0l6.5,13.9l6.3-13.9l3.2,0l0,21.3l-3.4,0l0-13.3h-0.1l-4.7,10.2l-2.8,0l-4.7-10.2l-0.1,0
			l0,13.3l-3.4,0L266.1,73.5z"/>
		<path class="st0" d="M293,73.5l3.4,0l0,21.3l-3.4,0L293,73.5z"/>
		<path class="st0" d="M304,73.4l3.2,0l10.2,15.1h0.1l0-15.1l3.4,0l0,21.3l-3.2,0l-10.2-15.1h-0.1l0,15.1l-3.4,0L304,73.4z"/>
		<path class="st0" d="M340.8,89.9l-8.6,0l-1.7,4.8l-3.6,0l8.2-21.3l2.9,0l8.2,21.3l-3.6,0L340.8,89.9z M339.9,87.1l-3.3-9.3h-0.1
			l-3.3,9.3L339.9,87.1z"/>
		<path class="st0" d="M354,76.3l-6.2,0l0-2.9l15.8,0l0,2.9l-6.2,0l0,18.4l-3.4,0L354,76.3z"/>
		<path class="st0" d="M368.6,84c0-2.5,0.1-4.1,0.2-5c0.2-0.8,0.4-1.5,0.8-2c0.5-1,1.4-1.9,2.6-2.6c1.2-0.8,2.7-1.2,4.4-1.2
			c1.8,0,3.3,0.4,4.5,1.2c1.2,0.8,2,1.6,2.6,2.6c0.4,0.5,0.6,1.2,0.8,2c0.1,0.8,0.2,2.5,0.2,5c0,2.4-0.1,4.1-0.2,4.9
			c-0.1,0.9-0.4,1.5-0.8,2.1c-0.5,1-1.4,1.9-2.6,2.6c-1.2,0.8-2.7,1.2-4.5,1.2c-1.8,0-3.3-0.4-4.4-1.2c-1.2-0.7-2.1-1.6-2.6-2.6
			c-0.2-0.3-0.3-0.6-0.4-0.9c-0.1-0.3-0.2-0.7-0.3-1.1C368.7,88.1,368.6,86.4,368.6,84z M372.1,84c0,2.1,0.1,3.5,0.3,4.2
			c0.1,0.7,0.4,1.3,0.9,1.8c0.4,0.4,0.8,0.8,1.4,1.1c0.6,0.3,1.3,0.5,2.1,0.5c0.8,0,1.5-0.2,2.1-0.5c0.6-0.3,1-0.6,1.4-1.1
			c0.4-0.5,0.7-1.1,0.9-1.8c0.2-0.7,0.2-2.2,0.2-4.2c0-2.1-0.1-3.5-0.2-4.3c-0.2-0.7-0.5-1.3-0.9-1.8c-0.3-0.4-0.8-0.8-1.4-1.1
			c-0.6-0.3-1.3-0.4-2.1-0.4c-0.8,0-1.5,0.2-2.1,0.5c-0.6,0.3-1.1,0.7-1.4,1.1c-0.4,0.5-0.7,1-0.9,1.8
			C372.1,80.5,372.1,81.9,372.1,84z"/>
		<path class="st0" d="M391.7,73.3l8.8,0c1.9,0,3.4,0.5,4.6,1.4c1.4,1.1,2.2,2.6,2.2,4.5c0,2.9-1.5,4.9-4.4,5.9l5.2,9.4l-4.1,0
			l-4.7-9.1l-4.4,0l0,9.1l-3.4,0L391.7,73.3z M395.1,82.6l5.2,0c1.3,0,2.2-0.4,2.9-1.1c0.6-0.6,0.9-1.4,0.9-2.3
			c0-1.1-0.4-1.9-1.1-2.4c-0.6-0.4-1.4-0.7-2.5-0.7l-5.4,0L395.1,82.6z"/>
		<path class="st0" d="M421.5,91.5c2.9,0,4.4-1,4.5-3c0-1.6-1-2.5-2.9-2.9c-0.9-0.1-1.9-0.2-3-0.4c-1.9-0.3-3.4-1-4.4-2
			c-1-1.1-1.6-2.4-1.6-3.9c0-1.9,0.6-3.4,2-4.5c1.3-1.1,3.1-1.7,5.4-1.7c2.8,0.1,5.2,0.8,7.3,2.2l-1.9,2.7c-1.7-1-3.6-1.6-5.6-1.6
			c-1.1,0-1.9,0.3-2.6,0.7c-0.7,0.5-1.1,1.3-1.1,2.3c0,0.6,0.3,1.2,0.8,1.7c0.5,0.5,1.3,0.9,2.4,1c0.6,0.1,1.5,0.2,2.5,0.3
			c2.1,0.3,3.7,1,4.7,2.1c1,1.1,1.5,2.5,1.5,4c-0.1,4.1-2.7,6.1-7.9,6.2c-3.3,0-6.2-1-8.6-2.9l2.2-2.4
			C416.8,90.8,419,91.5,421.5,91.5z"/>
	</g>
</g>
<g>
	<g>
		<path class="st0" d="M183.2,41.5v2.6c0,1.3-0.3,2.6-0.9,3.7c-0.6,1.2-1.4,2.2-2.4,3.1c-1,0.9-2.2,1.6-3.5,2.2
			c-1.4,0.5-2.8,0.8-4.4,0.8c-1.3,0-3.7-0.2-5-0.5c-1.4-0.3-2.6-0.9-3.7-1.7c-1.1-0.8-2-1.8-2.7-3.1c-0.7-1.3-1.1-2.9-1.1-4.8V20.6
			c0-1.4,0.3-2.7,0.8-3.9c0.6-1.2,1.3-2.2,2.3-3.1c1-0.9,2.2-1.6,3.6-2.1c1.4-0.5,3.9-0.7,5.6-0.7c3.3,0,6,0.9,8.1,2.8
			c1,0.9,1.8,2,2.4,3.3c0.6,1.3,0.9,2.6,0.9,4.1v2.4h-7v-2c0-1.2-0.4-2.2-1.2-3.1c-0.8-0.9-1.8-1.3-3.2-1.3c-1.7,0-3.9,0.5-4.5,1.4
			c-0.6,0.9-0.9,2.1-0.9,3.6v21.7c0,1.2,0.3,2.3,0.9,3.1c0.6,0.8,2.7,1.3,4.3,1.3c0.5,0,1-0.1,1.5-0.2c0.5-0.1,1-0.4,1.5-0.7
			c0.4-0.3,0.8-0.8,1-1.3c0.3-0.6,0.4-1.3,0.4-2.1v-2.1H183.2z"/>
		<path class="st0" d="M188.5,21.2c0-1.7,0.3-3.2,1-4.5c0.7-1.3,1.6-2.4,2.8-3.3c1.1-0.8,2.4-1.5,3.8-1.9c1.4-0.4,2.8-0.7,4.2-0.7
			c1.4,0,2.8,0.2,4.2,0.7c1.4,0.4,2.7,1.1,3.8,1.9c1.1,0.9,2,2,2.7,3.3c0.7,1.3,1,2.8,1,4.5v22.5c0,1.8-0.3,3.3-1,4.6
			c-0.7,1.3-1.6,2.3-2.7,3.2c-1.1,0.9-2.4,1.5-3.8,2c-1.4,0.4-2.8,0.7-4.2,0.7c-1.4,0-2.8-0.2-4.2-0.7c-1.4-0.4-2.7-1.1-3.8-2
			c-1.1-0.8-2.1-1.9-2.8-3.2c-0.7-1.3-1-2.8-1-4.6V21.2z M195.5,43.6c0,1.5,0.5,2.6,1.4,3.3c0.9,0.7,2.1,1,3.3,1
			c1.3,0,2.4-0.3,3.3-1c0.9-0.7,1.4-1.8,1.4-3.3V21.2c0-1.5-0.5-2.6-1.4-3.3c-0.9-0.7-2.1-1-3.3-1c-1.3,0-2.4,0.3-3.3,1
			c-0.9,0.7-1.4,1.8-1.4,3.3V43.6z"/>
		<path class="st0" d="M218.2,53.7V11.1h10.3c2.2,0,4.2,0.3,5.8,0.9c1.6,0.6,2.9,1.4,3.9,2.4c1,1,1.7,2.1,2.2,3.4
			c0.4,1.3,0.7,2.6,0.7,4v1.6c0,1.2-0.1,2.1-0.3,2.9c-0.2,0.8-0.5,1.5-0.9,2.1c-0.8,1.1-2,2.1-3.6,2.9c1.7,0.7,2.9,1.7,3.7,3
			c0.8,1.3,1.2,3.1,1.2,5.4v2.4c0,3.7-1,6.6-3.1,8.6c-2.1,2-5.4,3-10,3H218.2z M225.3,16.9v11.7h3.2c2.3,0,3.9-0.5,4.7-1.5
			c0.8-1,1.2-2.5,1.2-4.5c0-1.9-0.4-3.3-1.3-4.3c-0.9-1-2.5-1.4-4.9-1.4H225.3z M225.3,34v13.6h3c1.4,0,2.5-0.2,3.3-0.5
			c0.8-0.4,1.4-0.9,1.8-1.5c0.4-0.6,0.7-1.4,0.8-2.3c0.1-0.9,0.1-1.8,0.1-2.9c0-1.1-0.1-2-0.2-2.8c-0.1-0.8-0.4-1.5-0.8-2
			c-0.5-0.6-1.1-1-1.9-1.2c-0.8-0.3-1.8-0.4-3.1-0.4H225.3z"/>
		<path class="st0" d="M247.6,53.7V11.1h10.3c2.2,0,4.2,0.3,5.8,0.9c1.6,0.6,2.9,1.4,3.9,2.4c1,1,1.7,2.1,2.2,3.4
			c0.4,1.3,0.7,2.6,0.7,4v1.6c0,1.2-0.1,2.1-0.3,2.9c-0.2,0.8-0.5,1.5-0.9,2.1c-0.8,1.1-2,2.1-3.6,2.9c1.7,0.7,2.9,1.7,3.7,3
			c0.8,1.3,1.2,3.1,1.2,5.4v2.4c0,3.7-1,6.6-3.1,8.6c-2.1,2-5.4,3-10,3H247.6z M254.6,16.9v11.7h3.2c2.3,0,3.9-0.5,4.7-1.5
			c0.8-1,1.2-2.5,1.2-4.5c0-1.9-0.4-3.3-1.3-4.3c-0.9-1-2.5-1.4-4.9-1.4H254.6z M254.6,34v13.6h3c1.4,0,2.5-0.2,3.3-0.5
			c0.8-0.4,1.4-0.9,1.8-1.5c0.4-0.6,0.7-1.4,0.8-2.3c0.1-0.9,0.1-1.8,0.1-2.9c0-1.1-0.1-2-0.2-2.8c-0.1-0.8-0.4-1.5-0.8-2
			c-0.5-0.6-1.1-1-1.9-1.2c-0.8-0.3-1.8-0.4-3.1-0.4H254.6z"/>
		<path class="st0" d="M276.9,53.7V11.1h7v36.4h13.9v6.1H276.9z"/>
		<path class="st0" d="M302.4,53.7V11.1h20.9v5.7h-13.9v12.5h12.1v5.7h-12.1v12.5h13.9v6.1H302.4z"/>
		<path class="st0" d="M340.7,53.7V11.1h7v18.2h8.7V11.1h7v42.5h-7V34.7h-8.7v18.9H340.7z"/>
		<path class="st0" d="M370.2,53.7V11.1h7v42.5H370.2z"/>
		<path class="st0" d="M384.1,53.7V11.1h7v36.4H405v6.1H384.1z"/>
		<path class="st0" d="M409.6,53.7V11.1h7v36.4h13.9v6.1H409.6z"/>
	</g>
</g>
</svg>
