<?xml version="1.0" encoding="utf-8"?>
<!-- Generator: Adobe Illustrator 23.0.1, SVG Export Plug-In . SVG Version: 6.00 Build 0)  -->
<svg version="1.1" id="Layer_1" xmlns="http://www.w3.org/2000/svg" xmlns:xlink="http://www.w3.org/1999/xlink" x="0px" y="0px"
	 viewBox="0 0 84.6 75.4" style="enable-background:new 0 0 84.6 75.4;" xml:space="preserve">
<style type="text/css">
	.st0{fill:#FFFFFF;}
</style>
<path class="st0" d="M64.9,51.3c-2,0-4,0-6,0c0-2.7,0-5.4,0-8.2c-1.5,0-2.9,0-4.3,0c0,0.2,0,0.5,0,0.7c0,2.3,0,4.5,0,6.8
	c0,0.2,0,0.3,0,0.5c0,0.1-0.1,0.2-0.2,0.2c-0.1,0-0.2-0.1-0.2-0.2c0-0.2,0-0.4,0-0.5c0-2.2,0-4.5,0-6.7c0-0.2,0-0.5,0-0.8
	c-1.5,0-2.9,0-4.4,0c0,2.7,0,5.4,0,8.2c-2,0-3.9,0-5.9,0c0-13.3,0-26.7,0-40c7.1,0,14.1,0,21.2,0C64.9,24.6,64.9,38,64.9,51.3z
	 M53,26.5c0-2.3,0-4.6,0-6.8c0-1.2-0.6-2.1-1.7-2.6c-1.7-0.7-3.7,0.6-3.7,2.4c0,2.1,0,4.2,0,6.3c0,0.2,0,0.5,0,0.7
	C49.4,26.5,51.2,26.5,53,26.5z M61,38.8c0-2.3-0.1-4.6,0-6.8c0-1.3-0.6-2-1.6-2.5c-1.7-0.9-3.8,0.5-3.8,2.3c0,2.1,0,4.2,0,6.3
	c0,0.2,0,0.5,0,0.7C57.4,38.8,59.2,38.8,61,38.8z M55.6,26.5c1.9,0,3.6,0,5.4,0c0-0.1,0.1-0.1,0.1-0.2c0-2.2,0-4.4,0-6.6
	c0-1.2-0.6-2.1-1.8-2.6c-1.4-0.5-3.6,0.5-3.6,1.9C55.5,21.5,55.6,24,55.6,26.5z M53,38.6c0-2.3,0-4.6,0-6.8c0-1.2-0.6-2.1-1.7-2.6
	c-1.5-0.6-3.7,0.6-3.7,2c0,2.4,0,4.8,0,7.2c0,0.1,0,0.2,0.1,0.3C49.4,38.6,51.2,38.6,53,38.6z"/>
<path class="st0" d="M1.4,11.2c7.1,0,14.1,0,21.2,0c0,13.3,0,26.7,0,40c-2,0-3.9,0-6,0c0-2.7,0-5.4,0-8.2c-1.5,0-2.8,0-4.3,0
	c0,0.2,0,0.5,0,0.7c0,2.2,0,4.5,0,6.7c0,0.1,0,0.3,0,0.4c0,0.1-0.1,0.3-0.2,0.4c-0.1-0.1-0.2-0.3-0.2-0.4c0-0.1,0-0.3,0-0.4
	c0-2.2,0-4.4,0-6.5c0-0.2,0-0.5,0-0.8c-1.5,0-3,0-4.5,0c0,2.7,0,5.4,0,8.2c-2,0-3.9,0-5.9,0C1.4,37.9,1.4,24.6,1.4,11.2z M10.7,26.4
	c0-2.3-0.1-4.5,0-6.8c0-1.3-0.6-2.1-1.6-2.6c-1.7-0.9-3.8,0.5-3.8,2.3c0,2.1,0,4.2,0,6.3c0,0.2,0,0.5,0,0.7
	C7.1,26.4,8.9,26.4,10.7,26.4z M10.7,38.5c0-0.3,0-0.5,0-0.8c0-2,0-4.1,0-6.1c0-0.8-0.3-1.4-0.9-1.9c-0.9-0.8-1.9-1-3-0.5
	c-1,0.5-1.7,1.2-1.6,2.5c0.1,2,0,4,0,6c0,0.2,0,0.5,0,0.8C7.1,38.5,8.9,38.5,10.7,38.5z M18.7,38.7c0-0.2,0-0.4,0-0.5
	c0-2.2,0-4.3,0-6.5c0-0.7-0.2-1.2-0.6-1.6c-0.8-0.9-2-1.2-3.1-0.8c-1.1,0.4-1.7,1.4-1.7,2.6c0,2,0,4.1,0,6.1c0,0.2,0,0.5,0,0.7
	C15.2,38.7,16.9,38.7,18.7,38.7z M18.8,26.4c0-0.3,0-0.5,0-0.8c0-2-0.1-4,0-6c0.1-1.3-0.6-2.1-1.7-2.6c-1.6-0.8-3.7,0.6-3.7,2.4
	c0,2.1,0,4.2,0,6.3c0,0.2,0,0.5,0,0.7C15.2,26.4,17,26.4,18.8,26.4z"/>
<path class="st0" d="M41,51.5c-5.4,0-10.7,0-16,0c0-0.2,0-0.5,0-0.7c0-12.9,0-25.7,0-38.6c0-0.5,0.1-0.8,0.5-1.1
	c2.4-1.9,4.7-3.7,7-5.6c0.4-0.3,0.6-0.3,0.9,0c2.4,1.9,4.8,3.8,7.2,5.7c0.2,0.2,0.5,0.6,0.5,0.9c0,12.9,0,25.9,0,38.8
	C41,51,41,51.2,41,51.5z M26.8,45c1.2,0,2.4,0,3.6,0c0-1.3,0-2.5,0-3.8c-1.2,0-2.4,0-3.6,0C26.8,42.5,26.8,43.7,26.8,45z M34.7,41.2
	c-1.2,0-2.4,0-3.5,0c0,1.3,0,2.6,0,3.8c1.2,0,2.4,0,3.5,0C34.7,43.7,34.7,42.5,34.7,41.2z M35.6,41.2c0,1.3,0,2.6,0,3.8
	c1.2,0,2.4,0,3.5,0c0-1.3,0-2.6,0-3.8C37.9,41.2,36.8,41.2,35.6,41.2z M34.7,24.2c0-1.3,0-2.6,0-3.8c-1.2,0-2.3,0-3.5,0
	c0,1.3,0,2.5,0,3.8C32.4,24.2,33.5,24.2,34.7,24.2z M35.6,24.1c1.2,0,2.4,0,3.5,0c0-1.3,0-2.5,0-3.8c-1.2,0-2.4,0-3.5,0
	C35.6,21.6,35.6,22.9,35.6,24.1z M26.8,20.4c0,1.3,0,2.6,0,3.8c1.2,0,2.4,0,3.5,0c0-1.3,0-2.5,0-3.8C29.1,20.4,28,20.4,26.8,20.4z
	 M30.4,30.8c-1.2,0-2.4,0-3.5,0c0,1.3,0,2.5,0,3.7c1.2,0,2.4,0,3.5,0C30.4,33.3,30.4,32,30.4,30.8z M34.7,30.8c-1.2,0-2.3,0-3.5,0
	c0,1.3,0,2.5,0,3.8c1.2,0,2.3,0,3.5,0C34.7,33.3,34.7,32,34.7,30.8z M39.2,30.8c-1.2,0-2.4,0-3.6,0c0,1.3,0,2.5,0,3.7
	c1.2,0,2.4,0,3.6,0C39.2,33.3,39.2,32.1,39.2,30.8z M35.6,40.8c1.2,0,2.4,0,3.5,0c0-0.9,0-1.8,0-2.7c-1.2,0-2.4,0-3.5,0
	C35.6,39,35.6,39.8,35.6,40.8z M34.7,38c-1.2,0-2.4,0-3.5,0c0,0.9,0,1.8,0,2.7c1.2,0,2.4,0,3.5,0C34.7,39.8,34.7,39,34.7,38z
	 M26.8,40.8c1.2,0,2.4,0,3.5,0c0-0.9,0-1.8,0-2.7c-1.2,0-2.4,0-3.5,0C26.8,39,26.8,39.9,26.8,40.8z M39.2,27.7c-1.2,0-2.4,0-3.6,0
	c0,0.9,0,1.8,0,2.7c1.2,0,2.4,0,3.6,0C39.2,29.4,39.2,28.5,39.2,27.7z M34.7,27.7c-1.2,0-2.4,0-3.5,0c0,0.9,0,1.8,0,2.6
	c1.2,0,2.4,0,3.5,0C34.7,29.4,34.7,28.5,34.7,27.7z M30.4,30.3c0-0.9,0-1.8,0-2.7c-1.2,0-2.4,0-3.6,0c0,0.9,0,1.8,0,2.7
	C28,30.3,29.1,30.3,30.4,30.3z M39.2,17.2c-1.2,0-2.4,0-3.5,0c0,0.9,0,1.8,0,2.7c1.2,0,2.4,0,3.5,0C39.2,19,39.2,18.1,39.2,17.2z
	 M34.7,17.2c-1.2,0-2.4,0-3.5,0c0,0.9,0,1.8,0,2.7c1.2,0,2.4,0,3.5,0C34.7,19,34.7,18.1,34.7,17.2z M26.8,17.2c0,0.9,0,1.8,0,2.7
	c1.2,0,2.4,0,3.5,0c0-0.9,0-1.8,0-2.7C29.1,17.2,28,17.2,26.8,17.2z"/>
<path class="st0" d="M82.4,51.8c-5.4,0-10.7,0-16.1,0c0-0.2,0-0.5,0-0.7c0-12.9,0-25.7,0-38.6c0-0.5,0.2-0.8,0.5-1.1
	c2.3-1.8,4.6-3.7,6.9-5.5c0.4-0.3,0.7-0.4,1.1,0c2.4,1.9,4.7,3.8,7.1,5.6c0.3,0.3,0.5,0.6,0.5,1c0,12.9,0,25.8,0,38.7
	C82.4,51.3,82.4,51.5,82.4,51.8z M72.4,41.5c0,1.3,0,2.6,0,3.8c1.2,0,2.4,0,3.6,0c0-1.3,0-2.5,0-3.8C74.8,41.5,73.6,41.5,72.4,41.5z
	 M76,24.5c0-1.3,0-2.5,0-3.8c-1.2,0-2.4,0-3.5,0c0,1.3,0,2.6,0,3.8C73.6,24.5,74.8,24.5,76,24.5z M76,34.9c0-1.3,0-2.5,0-3.8
	c-1.2,0-2.4,0-3.5,0c0,1.3,0,2.5,0,3.8C73.6,34.9,74.8,34.9,76,34.9z M68.1,41.5c0,1.3,0,2.6,0,3.8c1.2,0,2.4,0,3.5,0
	c0-1.3,0-2.6,0-3.8C70.4,41.5,69.3,41.5,68.1,41.5z M80.4,45.3c0-1.3,0-2.6,0-3.8c-1.2,0-2.4,0-3.5,0c0,1.3,0,2.6,0,3.8
	C78.1,45.3,79.3,45.3,80.4,45.3z M68.1,24.5c1.2,0,2.4,0,3.5,0c0-1.3,0-2.5,0-3.8c-1.2,0-2.4,0-3.5,0C68.1,22,68.1,23.2,68.1,24.5z
	 M80.4,24.5c0-1.3,0-2.6,0-3.8c-1.2,0-2.4,0-3.5,0c0,1.3,0,2.5,0,3.8C78.1,24.5,79.2,24.5,80.4,24.5z M68.1,31.1c0,1.3,0,2.5,0,3.8
	c1.2,0,2.4,0,3.5,0c0-1.3,0-2.5,0-3.8C70.4,31.1,69.3,31.1,68.1,31.1z M80.4,34.9c0-1.3,0-2.5,0-3.7c-1.2,0-2.4,0-3.6,0
	c0,1.3,0,2.5,0,3.7C78.1,34.9,79.2,34.9,80.4,34.9z M72.4,38.3c0,1,0,1.8,0,2.7c1.2,0,2.4,0,3.5,0c0-0.9,0-1.8,0-2.7
	C74.8,38.3,73.6,38.3,72.4,38.3z M76.9,41.1c1.2,0,2.4,0,3.6,0c0-0.9,0-1.8,0-2.7c-1.2,0-2.4,0-3.6,0C76.9,39.3,76.9,40.2,76.9,41.1
	z M71.6,38.4c-1.2,0-2.4,0-3.5,0c0,0.9,0,1.8,0,2.7c1.2,0,2.4,0,3.5,0C71.6,40.2,71.6,39.3,71.6,38.4z M72.4,28c0,0.9,0,1.8,0,2.7
	c1.2,0,2.4,0,3.6,0c0-0.9,0-1.8,0-2.7C74.8,28,73.6,28,72.4,28z M76,20.3c0-0.9,0-1.8,0-2.7c-1.2,0-2.4,0-3.6,0c0,0.9,0,1.8,0,2.7
	C73.6,20.3,74.8,20.3,76,20.3z M80.4,28c-1.2,0-2.4,0-3.6,0c0,0.9,0,1.8,0,2.7c1.2,0,2.4,0,3.6,0C80.4,29.7,80.4,28.9,80.4,28z
	 M80.4,17.5c-1.2,0-2.4,0-3.5,0c0,0.9,0,1.8,0,2.7c1.2,0,2.4,0,3.5,0C80.4,19.3,80.4,18.4,80.4,17.5z M71.6,20.3c0-0.9,0-1.8,0-2.7
	c-1.2,0-2.4,0-3.5,0c0,0.9,0,1.8,0,2.7C69.3,20.3,70.4,20.3,71.6,20.3z M68.1,28c0,0.9,0,1.8,0,2.7c1.2,0,2.4,0,3.5,0
	c0-0.9,0-1.8,0-2.7C70.4,28,69.3,28,68.1,28z"/>
<path class="st0" d="M21.9,10c1.6-1.3,3.1-2.5,4.7-3.8c2-1.6,4-3.2,5.9-4.8c0.3-0.2,0.5-0.4,0.9-0.1C36.9,4.2,40.5,7,44,9.8
	c0.1,0.1,0.1,0.1,0.3,0.3c-1.1,0-2,0-2.9,0c-0.3,0-0.6-0.3-0.8-0.5c-2.5-2-5-4-7.6-6c-0.5,0.4-1,0.8-1.5,1.2c-2,1.7-4.1,3.3-6.1,5
	c-0.3,0.2-0.7,0.3-1,0.4c-0.8,0.1-1.5,0-2.3,0C22,10.1,21.9,10,21.9,10z"/>
<path class="st0" d="M74.1,3.6c-2.5,2-5,4-7.4,5.9c-0.5,0.4-1.1,0.7-1.8,0.6c-0.6-0.1-1.3,0-2,0c0.2-0.2,0.2-0.3,0.3-0.4
	c3.5-2.8,7-5.6,10.5-8.4c0.3-0.2,0.5-0.4,0.8-0.1C78,4.2,81.5,7,85,9.8c0.1,0.1,0.2,0.1,0.2,0.2c-1.4,0-2.8,0.5-4-0.7
	C78.9,7.3,76.5,5.5,74.1,3.6z"/>
<g>
	<g>
		<path class="st0" d="M0.5,68.6l4.3,0l0,0.8l-3.3,0l0,1.6l2.8,0l0,0.8l-2.8,0l0,1.7l3.3,0l0,0.8l-4.3,0L0.5,68.6z"/>
		<path class="st0" d="M7.7,74.3l-1.2,0l2.1-2.9l-2-2.8l1.2,0l1.4,2l1.4-2l1.2,0l-1.9,2.8l2.1,2.9l-1.2,0l-1.5-2.1L7.7,74.3z"/>
		<path class="st0" d="M15.2,69.4l-1.9,0l0-0.8l4.8,0l0,0.8l-1.9,0l0,4.9l-1,0L15.2,69.4z"/>
		<path class="st0" d="M20,68.6l4.3,0l0,0.8l-3.3,0l0,1.6l2.8,0l0,0.8l-2.8,0l0,1.7l3.3,0l0,0.8l-4.3,0L20,68.6z"/>
		<path class="st0" d="M26.5,68.6l2.7,0c0.6,0,1,0.1,1.4,0.4c0.4,0.3,0.7,0.7,0.7,1.2c0,0.8-0.4,1.3-1.3,1.6l1.6,2.5l-1.2,0
			l-1.4-2.4l-1.3,0l0,2.4l-1,0L26.5,68.6z M27.5,71.1l1.6,0c0.4,0,0.7-0.1,0.9-0.3c0.2-0.2,0.3-0.4,0.3-0.6c0-0.3-0.1-0.5-0.3-0.6
			c-0.2-0.1-0.4-0.2-0.8-0.2l-1.6,0L27.5,71.1z"/>
		<path class="st0" d="M33.5,68.6l1,0l2,3.7l1.9-3.7l1,0l0,5.7l-1,0l0-3.5h0l-1.4,2.7l-0.9,0l-1.4-2.7h0l0,3.5l-1,0L33.5,68.6z"/>
		<path class="st0" d="M41.7,68.6l1,0l0,5.7l-1,0L41.7,68.6z"/>
		<path class="st0" d="M45.3,68.6l1,0l3.1,4h0l0-4l1,0l0,5.7l-1,0l-3.1-4h0l0,4l-1,0L45.3,68.6z"/>
		<path class="st0" d="M56.5,73l-2.6,0l-0.5,1.3l-1.1,0l2.5-5.7l0.9,0l2.5,5.7l-1.1,0L56.5,73z M56.2,72.2l-1-2.5h0l-1,2.5
			L56.2,72.2z"/>
		<path class="st0" d="M60.7,69.3l-1.9,0l0-0.8l4.8,0l0,0.8l-1.9,0l0,4.9l-1,0L60.7,69.3z"/>
		<path class="st0" d="M65.3,71.4c0-0.7,0-1.1,0.1-1.3c0-0.2,0.1-0.4,0.2-0.5c0.2-0.3,0.4-0.5,0.8-0.7c0.4-0.2,0.8-0.3,1.3-0.3
			c0.5,0,1,0.1,1.4,0.3c0.4,0.2,0.6,0.4,0.8,0.7c0.1,0.1,0.2,0.3,0.2,0.5c0,0.2,0.1,0.7,0.1,1.3c0,0.7,0,1.1-0.1,1.3
			c0,0.2-0.1,0.4-0.2,0.5c-0.2,0.3-0.4,0.5-0.8,0.7c-0.4,0.2-0.8,0.3-1.4,0.3c-0.5,0-1-0.1-1.3-0.3c-0.4-0.2-0.6-0.4-0.8-0.7
			c0-0.1-0.1-0.2-0.1-0.2c0-0.1-0.1-0.2-0.1-0.3C65.3,72.5,65.3,72,65.3,71.4z M66.3,71.4c0,0.6,0,0.9,0.1,1.1
			c0,0.2,0.1,0.4,0.3,0.5c0.1,0.1,0.3,0.2,0.4,0.3c0.2,0.1,0.4,0.1,0.6,0.1c0.2,0,0.5,0,0.6-0.1c0.2-0.1,0.3-0.2,0.4-0.3
			c0.1-0.1,0.2-0.3,0.3-0.5c0-0.2,0.1-0.6,0.1-1.1s0-0.9-0.1-1.1c0-0.2-0.1-0.3-0.3-0.5c-0.1-0.1-0.2-0.2-0.4-0.3
			c-0.2-0.1-0.4-0.1-0.6-0.1c-0.2,0-0.5,0-0.6,0.1c-0.2,0.1-0.3,0.2-0.4,0.3c-0.1,0.1-0.2,0.3-0.3,0.5
			C66.3,70.4,66.3,70.8,66.3,71.4z"/>
		<path class="st0" d="M72.4,68.5l2.7,0c0.6,0,1,0.1,1.4,0.4c0.4,0.3,0.7,0.7,0.7,1.2c0,0.8-0.4,1.3-1.3,1.6l1.6,2.5l-1.2,0
			l-1.4-2.4l-1.3,0l0,2.4l-1,0L72.4,68.5z M73.4,71l1.6,0c0.4,0,0.7-0.1,0.9-0.3c0.2-0.2,0.3-0.4,0.3-0.6c0-0.3-0.1-0.5-0.3-0.6
			c-0.2-0.1-0.4-0.2-0.8-0.2l-1.6,0L73.4,71z"/>
		<path class="st0" d="M81.5,73.4c0.9,0,1.3-0.3,1.3-0.8c0-0.4-0.3-0.7-0.9-0.8c-0.3,0-0.6-0.1-0.9-0.1c-0.6-0.1-1-0.3-1.3-0.5
			c-0.3-0.3-0.5-0.6-0.5-1.1c0-0.5,0.2-0.9,0.6-1.2c0.4-0.3,0.9-0.5,1.6-0.5c0.8,0,1.6,0.2,2.2,0.6l-0.6,0.7
			c-0.5-0.3-1.1-0.4-1.7-0.4c-0.3,0-0.6,0.1-0.8,0.2c-0.2,0.1-0.3,0.3-0.3,0.6c0,0.2,0.1,0.3,0.2,0.4c0.2,0.1,0.4,0.2,0.7,0.3
			c0.2,0,0.4,0.1,0.8,0.1c0.6,0.1,1.1,0.3,1.4,0.6c0.3,0.3,0.5,0.7,0.5,1.1c0,1.1-0.8,1.6-2.4,1.7c-1,0-1.9-0.3-2.6-0.8l0.7-0.6
			C80.1,73.2,80.8,73.4,81.5,73.4z"/>
	</g>
</g>
<g>
	<g>
		<path class="st0" d="M7.3,62.1v0.6c0,0.3-0.1,0.6-0.3,0.9c-0.2,0.3-0.4,0.5-0.7,0.8c-0.3,0.2-0.7,0.4-1.1,0.5
			c-0.4,0.1-0.9,0.2-1.4,0.2c-0.4,0-0.8,0-1.3-0.1c-0.4-0.1-0.8-0.2-1.2-0.4c-0.3-0.2-0.6-0.4-0.8-0.7c-0.2-0.3-0.3-0.7-0.3-1.2
			v-5.6c0-0.3,0.1-0.6,0.3-0.9s0.4-0.5,0.7-0.7c0.3-0.2,0.7-0.4,1.1-0.5c0.4-0.1,0.9-0.2,1.5-0.2c1,0,1.9,0.2,2.5,0.7
			c0.3,0.2,0.6,0.5,0.7,0.8c0.2,0.3,0.3,0.6,0.3,1v0.6H5.1v-0.5c0-0.3-0.1-0.5-0.4-0.7c-0.2-0.2-0.6-0.3-1-0.3
			c-0.5,0-0.9,0.1-1.1,0.3c-0.2,0.2-0.3,0.5-0.3,0.9v5.2c0,0.3,0.1,0.5,0.3,0.8c0.2,0.2,0.5,0.3,1,0.3c0.1,0,0.3,0,0.5,0
			c0.2,0,0.3-0.1,0.5-0.2c0.1-0.1,0.2-0.2,0.3-0.3C5,63,5.1,62.8,5.1,62.6v-0.5H7.3z"/>
		<path class="st0" d="M8.9,57.2c0-0.4,0.1-0.8,0.3-1.1c0.2-0.3,0.5-0.6,0.9-0.8c0.3-0.2,0.7-0.4,1.2-0.5c0.4-0.1,0.9-0.2,1.3-0.2
			c0.4,0,0.9,0.1,1.3,0.2c0.4,0.1,0.8,0.3,1.2,0.5c0.3,0.2,0.6,0.5,0.8,0.8c0.2,0.3,0.3,0.7,0.3,1.1v5.4c0,0.4-0.1,0.8-0.3,1.1
			s-0.5,0.6-0.8,0.8c-0.4,0.2-0.8,0.4-1.2,0.5c-0.4,0.1-0.9,0.2-1.3,0.2c-0.4,0-0.9-0.1-1.3-0.2c-0.4-0.1-0.8-0.3-1.2-0.5
			c-0.4-0.2-0.6-0.5-0.9-0.8s-0.3-0.7-0.3-1.1V57.2z M11.1,62.6c0,0.4,0.1,0.6,0.4,0.8c0.3,0.2,0.6,0.3,1,0.3c0.4,0,0.7-0.1,1-0.3
			c0.3-0.2,0.4-0.4,0.4-0.8v-5.4c0-0.4-0.1-0.6-0.4-0.8c-0.3-0.2-0.6-0.3-1-0.3c-0.4,0-0.7,0.1-1,0.3c-0.3,0.2-0.4,0.4-0.4,0.8V62.6
			z"/>
		<path class="st0" d="M18.2,65.1V54.8h3.2c0.7,0,1.3,0.1,1.8,0.2c0.5,0.1,0.9,0.3,1.2,0.6c0.3,0.2,0.5,0.5,0.7,0.8
			c0.1,0.3,0.2,0.6,0.2,1v0.4c0,0.3,0,0.5-0.1,0.7c-0.1,0.2-0.2,0.4-0.3,0.5c-0.2,0.3-0.6,0.5-1.1,0.7c0.5,0.2,0.9,0.4,1.1,0.7
			c0.2,0.3,0.4,0.7,0.4,1.3v0.6c0,0.9-0.3,1.6-1,2.1c-0.7,0.5-1.7,0.7-3.1,0.7H18.2z M20.4,56.2V59h1c0.7,0,1.2-0.1,1.5-0.4
			c0.3-0.2,0.4-0.6,0.4-1.1c0-0.5-0.1-0.8-0.4-1c-0.3-0.2-0.8-0.3-1.5-0.3H20.4z M20.4,60.3v3.3h0.9c0.4,0,0.8,0,1-0.1
			c0.3-0.1,0.4-0.2,0.6-0.4c0.1-0.2,0.2-0.3,0.2-0.5c0-0.2,0-0.4,0-0.7c0-0.3,0-0.5-0.1-0.7s-0.1-0.4-0.3-0.5
			c-0.1-0.1-0.3-0.2-0.6-0.3c-0.2-0.1-0.6-0.1-1-0.1H20.4z"/>
		<path class="st0" d="M27.4,65.1V54.8h3.2c0.7,0,1.3,0.1,1.8,0.2c0.5,0.1,0.9,0.3,1.2,0.6c0.3,0.2,0.5,0.5,0.7,0.8
			c0.1,0.3,0.2,0.6,0.2,1v0.4c0,0.3,0,0.5-0.1,0.7c-0.1,0.2-0.2,0.4-0.3,0.5c-0.2,0.3-0.6,0.5-1.1,0.7c0.5,0.2,0.9,0.4,1.1,0.7
			c0.2,0.3,0.4,0.7,0.4,1.3v0.6c0,0.9-0.3,1.6-1,2.1c-0.7,0.5-1.7,0.7-3.1,0.7H27.4z M29.5,56.2V59h1c0.7,0,1.2-0.1,1.5-0.4
			c0.3-0.2,0.4-0.6,0.4-1.1c0-0.5-0.1-0.8-0.4-1c-0.3-0.2-0.8-0.3-1.5-0.3H29.5z M29.5,60.3v3.3h0.9c0.4,0,0.8,0,1-0.1
			c0.3-0.1,0.4-0.2,0.6-0.4c0.1-0.2,0.2-0.3,0.2-0.5c0-0.2,0-0.4,0-0.7c0-0.3,0-0.5-0.1-0.7s-0.1-0.4-0.3-0.5
			c-0.1-0.1-0.3-0.2-0.6-0.3c-0.2-0.1-0.6-0.1-1-0.1H29.5z"/>
		<path class="st0" d="M36.5,65.1V54.8h2.2v8.8H43v1.5H36.5z"/>
		<path class="st0" d="M44.5,65.1V54.8H51v1.4h-4.3v3h3.8v1.4h-3.8v3H51v1.5H44.5z"/>
		<path class="st0" d="M56.4,65.1V54.8h2.2v4.4h2.7v-4.4h2.2v10.3h-2.2v-4.6h-2.7v4.6H56.4z"/>
		<path class="st0" d="M65.6,65.1V54.8h2.2v10.3H65.6z"/>
		<path class="st0" d="M70,65.1V54.8h2.2v8.8h4.3v1.5H70z"/>
		<path class="st0" d="M77.9,65.1V54.8h2.2v8.8h4.3v1.5H77.9z"/>
	</g>
</g>
</svg>
