<?xml version="1.0" encoding="utf-8"?>
<!-- Generator: Adobe Illustrator 23.0.1, SVG Export Plug-In . SVG Version: 6.00 Build 0)  -->
<svg version="1.1" id="Capa_1" xmlns="http://www.w3.org/2000/svg" xmlns:xlink="http://www.w3.org/1999/xlink" x="0px" y="0px"
	 viewBox="0 0 299 299" style="enable-background:new 0 0 299 299;" xml:space="preserve">
<style type="text/css">
	.st0{fill:#FFFFFF;stroke:#000000;stroke-width:10;stroke-miterlimit:10;}
</style>
<g>
	<path d="M296.1,107.1L265.6,5.7c-1-3.4-4.1-5.7-7.7-5.7H41.1c-3.5,0-6.6,2.3-7.7,5.7l-30.8,102c-0.7,2.4-0.3,5,1.2,7.1
		c1.5,2,3.9,3.2,6.4,3.2h7.3v173c0,4.4,3.9,8,8.3,8h248c4.4,0,7.7-3.6,7.7-8V118h7c0,0,0,0,0,0c4.4,0,8-3.6,8-8
		C296.7,109,296.5,108,296.1,107.1z M265.7,283h-84v-60c0-4.4-3.2-8-7.7-8h-49c-4.4,0-8.3,3.6-8.3,8v60h-83V118h232V283z M132.7,231
		h33v52h-33V231z M252,16l25.9,86H21.1L47,16H252z"/>
	<path d="M248.7,217c0-4.4-3.6-8-8-8h-33c-4.4,0-8,3.6-8,8v49c0,4.4,3.6,8,8,8h33c4.4,0,8-3.6,8-8V217z M215.7,225h17v33h-17V225z"
		/>
	<path d="M99.7,217c0-4.4-3.6-8-8-8h-33c-4.4,0-8,3.6-8,8v49c0,4.4,3.6,8,8,8h33c4.4,0,8-3.6,8-8V217z M66.7,225h17v33h-17V225z"/>
	<path d="M248.7,143c0-4.4-3.6-8-8-8h-33c-4.4,0-8,3.6-8,8v49c0,4.4,3.6,8,8,8h33c4.4,0,8-3.6,8-8V143z M215.7,151h17v33h-17V151z"
		/>
	<path d="M99.7,143c0-4.4-3.6-8-8-8h-33c-4.4,0-8,3.6-8,8v49c0,4.4,3.6,8,8,8h33c4.4,0,8-3.6,8-8V143z M66.7,151h17v33h-17V151z"/>
	<path d="M173.7,143c0-4.4-3.6-8-8-8h-33c-4.4,0-8,3.6-8,8v49c0,4.4,3.6,8,8,8h33c4.4,0,8-3.6,8-8V143z M140.7,151h17v33h-17V151z"
		/>
</g>
<circle class="st0" cx="186.3" cy="133.4" r="49.5"/>
<rect x="232.9" y="165.3" transform="matrix(0.8246 -0.5657 0.5657 0.8246 -79.6316 177.1882)" class="st0" width="26.1" height="103.4"/>
</svg>
