<?xml version="1.0" encoding="utf-8"?>
<!-- Generator: Adobe Illustrator 23.0.1, SVG Export Plug-In . SVG Version: 6.00 Build 0)  -->
<svg version="1.1" id="Layer_1" xmlns="http://www.w3.org/2000/svg" xmlns:xlink="http://www.w3.org/1999/xlink" x="0px" y="0px"
	 viewBox="0 0 240 240" style="enable-background:new 0 0 240 240;" xml:space="preserve">
<style type="text/css">
	.st0{fill:none;stroke:#000000;stroke-width:12;stroke-miterlimit:10;}
	.st1{stroke:#000000;stroke-width:3;stroke-miterlimit:10;}
</style>
<ellipse class="st0" cx="119.2" cy="118.8" rx="110.5" ry="110"/>
<line class="st0" x1="32.2" y1="54.8" x2="199.3" y2="195.8"/>
<g>
	<g transform="translate(0.000000,512.000000) scale(0.100000,-0.100000)">
		<path class="st1" d="M904.4,4545.6c-7.5-4.1-12.5-11.6-12.5-19.5c0-5,11.6-30.6,37.4-82.2c30.2-60.6,38.6-75.4,43.8-78.1
			c3.4-1.8,20.9-5,38.8-7.3c30.9-3.9,32.2-4.1,30.9-8.6c-9.8-33.8-10.7-39.7-10.9-71.7c-0.5-30.4,0-34.3,5.9-50.6
			c3.4-9.8,9.5-23.2,13.8-29.5c8.8-14.1,30-34,42.9-40.6c9.3-4.5,9.3-4.8,4.5-8.4c-21.8-17-27.7-22.2-34.7-31.1
			c-4.3-5.4-9.5-10-11.3-10c-1.8,0-45.6,9.5-97.1,21.1l-94,20.9L817,4273.7c-49,134.8-48.6,133.9-65.8,133.9
			c-11.3,0-20.2-7.3-21.8-18.2c-1.6-11.8,92.8-271,101.2-277.1c3.6-2.9,40.4-12,105.5-26.6c77.9-17.5,99.6-23.2,99.2-25.7
			c-0.5-1.8-2-12.7-3.4-24.1c-1.4-11.8-3.4-21.1-4.8-21.1c-1.4,0-53.8,10.4-116.4,23.2c-103.9,20.9-114.4,22.7-121,20
			c-5.9-2.5-20-22.2-80.3-112.1c-66.7-100.1-72.9-109.9-72.9-118.7c0.2-11.1,5-17.5,16.1-21.1c16.1-5.4,17-4.3,89.4,104.4
			c36.5,54.9,67.2,99.9,67.9,99.9c4.3,0,219.7-43.6,222.4-44.9c1.8-1.1,5-7.9,7-15.4c2.3-7.3,6.6-20,10-27.9
			c3.4-7.9,5.9-14.5,5.4-15c-0.5-0.2-39.5-18.8-86.9-41.5c-144.1-68.3-139.1-65.8-142.8-72.6c-5.9-11.1-119.4-377.4-119.4-384.7
			c0.2-11.3,11.1-22,22.7-22c8.6,0,17.5,6.4,21.1,15.2c1.8,4.8,28.1,87.8,58.3,184.5s56.1,177,57.4,178.4
			c2.9,2.9,213.1,103,216.3,103c0.9,0,5.2-3.2,9.3-7.3l7.5-7.3l-16.1-8.6c-54-29.3-85.8-73.3-95.1-131.9c-4.5-28.4-1.8-74.2,6.4-106
			c27.9-107.8,99.6-192.7,182-214.9c20.2-5.4,61.5-5.4,81.7,0c82.4,22.2,154.1,107.1,182,214.9c8.2,31.8,10.9,77.6,6.4,106
			c-9.3,58.6-41.1,102.6-95.1,131.9l-16.1,8.6l7.5,7.3c4.1,4.1,8.4,7.3,9.3,7.3c3.2,0,213.4-100.1,216.3-103
			c1.4-1.4,27.2-81.7,57.4-178.4c30.2-96.7,56.5-179.5,58.1-184.1c3.4-8.4,13.2-15.7,21.3-15.7c12,0,22.7,11.1,22.7,23.8
			c0,7-115.1,375-119.8,383.4c-3.2,5.4-22.2,15.4-115.1,59.5c-61.1,29.1-112.1,53.3-113.3,53.8c-0.9,0.2,0.9,7.3,4.3,15.2
			c3.4,8.2,7.9,20.9,10.2,28.1c2,7.5,5.2,14.3,7,15.4c6.1,3.4,222.7,45.4,224.5,43.3c0.9-0.9,30.4-44.7,65.4-97.1
			c34.7-52.4,65.8-97.6,68.8-100.1c7.5-6.6,15-7.9,23.8-4.3c9.8,4.1,15.2,12.7,14.1,22c-0.7,5-24.5,42.7-73.8,116.7
			c-60.2,90.1-74,109.6-80.1,112.1c-6.6,2.7-17,0.9-121-20c-62.6-12.7-115.1-23.2-116.4-23.2c-1.4,0-3.4,9.3-4.8,21.1
			c-1.4,11.3-2.9,22.2-3.4,24.1c-0.4,2.5,21.3,8.2,99.2,25.7c65.1,14.5,101.9,23.6,105.5,26.6c4.5,3.2,15,29.5,54,136.6
			c26.3,72.9,48.1,134.4,48.1,136.6c0,6.1-6.1,17-11.1,19.7c-8.4,4.3-21.8,2.7-27.5-3.4c-3.6-3.9-20.4-46.8-50.2-128.9l-44.7-123
			l-94-20.9c-51.5-11.6-95.3-21.1-97.1-21.1c-2,0-7.5,4.8-12,10.9c-4.8,5.9-13.4,14.3-19.1,18.6c-22.5,17.3-21.1,14.8-10.4,20
			c12.9,6.6,34,26.6,42.9,40.6c4.3,6.4,10.4,19.7,13.8,29.5c5.7,15.9,6.1,20.7,6.1,48.3c0,24.7-1.1,34-5.2,48.8
			c-2.7,10-5.7,20.2-6.4,22.7c-0.9,4.3,1.1,5,31.6,10c17.9,2.9,35.2,6.8,38.8,8.4c5,2.7,13.6,17.9,43.6,78.1
			c38.8,77.8,41.3,84.7,33.4,94.4c-8.9,11.1-21.8,12.9-31.3,4.8c-3.6-3.2-19.3-31.6-39.3-71l-33.1-65.6l-34.7-5.7l-34.5-5.4
			l-16.8,17.9c-15,16.1-17.5,20.2-22.9,36.8c-6.6,19.7-16.8,37.4-30.2,51.3c-9.3,9.8-25.9,22-29.7,22c-1.6,0-2.5-9.1-2.5-26.1
			c0-14.3-0.7-26.1-1.6-26.1c-1.1,0.2-7.9,1.6-15.4,3.4c-21.1,5.2-47.9,4.1-69.7-2.5c-3.6-1.1-4.1,1.1-4.1,25
			c0,17.3-0.9,26.3-2.5,26.3c-4.5,0-21.8-13.4-32-24.7c-11.6-12.7-25-37.2-29.1-52.4c-1.8-7.5-5.7-13.2-14.5-21.6
			c-6.6-6.1-14.5-14.8-17.9-18.8l-6.1-7.7l-29.1,3.6c-15.9,2-31.8,4.3-35.2,5c-5.7,1.1-9.5,7.7-39,66.7
			c-21.3,42.4-34.7,67-38.8,70.1C920.3,4548.8,911.4,4549.7,904.4,4545.6z M1234.2,4429.2c26.8-6.4,60.8-27,80.3-48.6
			c25.9-28.6,38.4-59,39.9-97.1c1.4-34-3.6-51.5-20-69.4c-19.1-20.9-46.1-31.6-92.4-36.1c-28.4-2.9-66.1-0.2-90.3,6.1
			c-36.1,9.5-60.8,30-69.2,57.2c-9.1,29.3-4.8,74.4,10.2,106c17.9,37.9,57,69.7,99.2,80.8C1212.2,4433.2,1216,4433.5,1234.2,4429.2z
			 M1265.7,4124.8c23.6-4.8,47-16.1,60.4-29.7c20.4-20.2,28.8-44.3,28.8-81.5c0-38.1-8.6-68.8-27.5-97.8
			c-10.4-16.1-37.9-43.1-45.8-44.9c-2.9-0.9-13.8-0.2-24.3,0.9c-24.5,3.2-57.2,3.2-81.7,0c-10.4-1.1-21.3-1.8-24.3-0.9
			c-7.9,1.8-35.4,28.8-45.8,44.9c-18.8,29.1-27.5,59.7-27.5,97.8c0,70.8,34.9,105.8,115.8,115.8
			C1207.9,4130.9,1247.8,4128.7,1265.7,4124.8z M1274.4,3821.6c110.1-21.6,153-106.9,113.5-225.8c-15-44.9-38.6-84-69.2-114.2
			c-20.4-20.2-35.4-30.4-59.5-40.6c-12.9-5.2-17-5.9-42.7-5.9s-29.7,0.7-42.7,5.9c-24.1,10.2-39,20.4-59.5,40.6
			c-41.3,40.6-70.6,99.2-80.8,160.9c-4.3,26.3-3.4,56.1,2.5,77.4c16.6,61.3,74,100.6,155.5,106.4
			C1221,3828.4,1247.3,3827,1274.4,3821.6z"/>
	</g>
</g>
</svg>
