<?xml version="1.0" encoding="utf-8"?>
<!-- Generator: Adobe Illustrator 23.0.1, SVG Export Plug-In . SVG Version: 6.00 Build 0)  -->
<svg version="1.1" id="Layer_1" xmlns="http://www.w3.org/2000/svg" xmlns:xlink="http://www.w3.org/1999/xlink" x="0px" y="0px"
	 viewBox="0 0 240 240" style="enable-background:new 0 0 240 240;" xml:space="preserve">
<style type="text/css">
	.st0{fill:none;stroke:#000000;stroke-width:12;stroke-miterlimit:10;}
	.st1{stroke:#000000;stroke-width:3;stroke-miterlimit:10;}
	.st2{fill:none;stroke:#000000;stroke-width:6;stroke-miterlimit:10;}
</style>
<ellipse class="st0" cx="119.3" cy="119.5" rx="110.5" ry="110"/>
<line class="st0" x1="32.1" y1="58" x2="214.1" y2="179.3"/>
<g>
	<path class="st1" d="M130.5,132c0-1.4-1.1-2.5-2.5-2.5h-16.1c-1.4,0-2.5,1.1-2.5,2.5s1.1,2.5,2.5,2.5H128
		C129.4,134.5,130.5,133.4,130.5,132z"/>
	<path class="st1" d="M114.5,115.7h10.7c1.4,0,2.5-1.1,2.5-2.5s-1.1-2.5-2.5-2.5h-10.7c-1.4,0-2.5,1.1-2.5,2.5
		S113.2,115.7,114.5,115.7z"/>
	<path class="st1" d="M117.2,99.6h5.4c1.4,0,2.5-1.1,2.5-2.5s-1.1-2.5-2.5-2.5h-5.4c-1.4,0-2.5,1.1-2.5,2.5S115.8,99.6,117.2,99.6z"
		/>
	<path class="st1" d="M122.6,164.4h-5.4c-1.4,0-2.5,1.1-2.5,2.5c0,1.4,1.1,2.5,2.5,2.5h5.4c1.4,0,2.5-1.1,2.5-2.5
		C125.1,165.5,124,164.4,122.6,164.4z"/>
	<path class="st1" d="M125.3,148.3h-10.7c-1.4,0-2.5,1.1-2.5,2.5s1.1,2.5,2.5,2.5h10.7c1.4,0,2.5-1.1,2.5-2.5
		S126.7,148.3,125.3,148.3z"/>
	<path class="st1" d="M142.5,81.3l-4.9-2.5l-7.8-7.8c-0.2-0.2-0.4-0.3-0.6-0.4l1.1-0.4l7,4.7c0.4,0.3,0.9,0.4,1.4,0.4h3.5
		c0.3,0,0.4-0.2,0.7-0.3c4.2-1.1,10.8-3.4,8.7-3.4l-12.1-1.3l-7.4-5c-0.6-0.4-1.5-0.5-2.2-0.3l-7.4,2.5v-0.7c2.7-0.9,4.7-3.2,5.2-6
		l7-4.6c1.1-0.8,1.6-2.3,0.9-3.5c-0.7-1.3-2.4-1.6-3.6-0.8l-4.1,2.8v-2.9l2.5-7.5c0.4-1.3-0.1-2.7-1.3-3.2c-1.4-0.6-3,0.1-3.4,1.5
		l-2.7,8.1c-0.1,0.3-0.1,0.5-0.1,0.8v2.9h-5.7v-2.9c0-0.3,0-0.5-0.1-0.8l-2.6-7.9c-0.4-1.3-1.8-2.1-3.1-1.8
		c-1.4,0.4-2.2,1.9-1.7,3.2l2.6,7.7v2.9l-4-2.7c-1.1-0.7-2.6-0.6-3.5,0.4c-1,1.2-0.7,2.9,0.5,3.7l7.1,4.7c0.5,2.8,2.6,5.1,5.2,6v0.7
		l-7.4-2.5c-0.7-0.2-1.5-0.1-2.2,0.3l-7.4,5l-1.8,0c-1.3,0-12.9,1.2-13,2.5c-0.2,1.5,11.4,2.6,12.9,2.6h2.7c0.5,0,1-0.1,1.4-0.4
		l7-4.7l1.1,0.4c-0.2,0.1-0.4,0.3-0.6,0.4l-7.8,7.8l-4.9,2.5c-1.1,0.6-1.7,1.8-1.4,3c0.3,1.1,1.4,1.8,2.4,1.8c0.4,0,0.8-0.1,1.1-0.3
		l5.4-2.7c0.2-0.1,0.5-0.3,0.7-0.5l0.5-0.5c-0.6,1.6-1.2,3.4-1.8,5.3c-3.6,11.9-5.6,27.7-5.6,44.4s2,32.5,5.6,44.4
		c4,13,9.4,19.9,15.7,19.9c6.3,0,11.8-6.9,15.7-19.9c3.6-11.9,5.6-27.7,5.6-44.4s-2-32.5-5.6-44.4c-0.6-1.9-1.2-3.7-1.8-5.3l0.5,0.5
		c0.2,0.2,0.4,0.4,0.7,0.5l5.4,2.7c0.4,0.2,0.7,0.3,1.1,0.3c1.1,0,2.1-0.7,2.4-1.8C144.2,83.1,143.6,81.9,142.5,81.3z M117.1,59.4
		C117.1,59.4,117.1,59.4,117.1,59.4v-0.2h5.7v0.2c0,0,0,0,0,0v0c0,1.6-1.3,2.9-2.9,2.9S117.1,61,117.1,59.4L117.1,59.4z
		 M119.9,191.3c-4.4,0-8.5-8.4-10.9-16.3c-0.5-1.8-1-3.6-1.5-5.5h1.6c1.4,0,2.5-1.1,2.5-2.5c0-1.4-1.1-2.5-2.5-2.5h-2.7c0,0,0,0,0,0
		c-0.7-3.5-1.2-7.2-1.7-11.1h1.7c1.4,0,2.5-1.1,2.5-2.5s-1.1-2.5-2.5-2.5h-2.2c-0.4-4.4-0.6-9.1-0.6-13.8h0.2c1.4,0,2.5-1.1,2.5-2.5
		s-1.1-2.5-2.5-2.5h-0.2c0.1-4.7,0.3-9.3,0.6-13.8h2.2c1.4,0,2.5-1.1,2.5-2.5c0-1.4-1.1-2.5-2.5-2.5h-1.7c0.4-3.9,1-7.6,1.7-11.1
		c0,0,0,0,0,0h2.7c1.4,0,2.5-1.1,2.5-2.5c0-1.4-1.1-2.5-2.5-2.5h-1.6c0.5-1.9,1-3.8,1.5-5.5c2.4-7.9,6.5-16.3,10.9-16.3
		c4.4,0,8.5,8.4,10.9,16.3c0.5,1.8,1,3.6,1.5,5.5h-1.6c-1.4,0-2.5,1.1-2.5,2.5c0,1.4,1.1,2.5,2.5,2.5h2.7c0,0,0,0,0,0
		c0.7,3.5,1.2,7.2,1.7,11.1h-1.7c-1.4,0-2.5,1.1-2.5,2.5c0,1.4,1.1,2.5,2.5,2.5h2.2c0.4,4.4,0.6,9.1,0.6,13.8H136
		c-1.4,0-2.5,1.1-2.5,2.5s1.1,2.5,2.5,2.5h0.2c-0.1,4.7-0.3,9.3-0.6,13.8h-2.2c-1.4,0-2.5,1.1-2.5,2.5s1.1,2.5,2.5,2.5h1.7
		c-0.4,3.9-1,7.6-1.7,11.1c0,0,0,0,0,0h-2.7c-1.4,0-2.5,1.1-2.5,2.5c0,1.4,1.1,2.5,2.5,2.5h1.6c-0.5,1.9-1,3.8-1.5,5.5
		C128.4,182.8,124.3,191.3,119.9,191.3z"/>
</g>
<path class="st2" d="M98.9,135.8c-3.7,2.8-7.4,5.6-11.1,8.5l-6.8-10"/>
<path class="st2" d="M99.5,150c-5.3,4-10.6,7.9-16,11.9l-9.8-14"/>
<path class="st2" d="M158.9,133.8c-3.7,2.8-7.4,5.6-11.1,8.5l-6.8-10"/>
<path class="st2" d="M166.1,147.5c-5.1,4.1-10.1,8.3-15.2,12.4l-9.3-14.6"/>
<path class="st2" d="M158.2,114.6c-3.7,2.8-7.4,5.6-11.1,8.5l-6.8-10"/>
<path class="st2" d="M102.8,111.3c-3.7,2.8-7.4,5.6-11.1,8.5l-6.8-10"/>
</svg>
