<?xml version="1.0" encoding="utf-8"?>
<!-- Generator: Adobe Illustrator 23.0.1, SVG Export Plug-In . SVG Version: 6.00 Build 0)  -->
<svg version="1.1" id="Layer_1" xmlns="http://www.w3.org/2000/svg" xmlns:xlink="http://www.w3.org/1999/xlink" x="0px" y="0px"
	 viewBox="0 0 240 240" style="enable-background:new 0 0 240 240;" xml:space="preserve">
<style type="text/css">
	.st0{stroke:#000000;stroke-width:3;stroke-miterlimit:10;}
	.st1{fill:none;stroke:#000000;stroke-width:12;stroke-miterlimit:10;}
</style>
<g>
	<g>
		<path class="st0" d="M189,142.8l-13.5-20.4c-0.3-0.4-0.7-0.7-1.1-0.9l-24.1-8.9c-4.5-6.5-9.5-12.6-13.3-17.1l14.8-3.6
			c0.6-0.1,1.1-0.5,1.4-1l6.8-11.3c0.6-1.1,0.3-2.5-0.8-3.1c-1.1-0.6-2.5-0.3-3.1,0.8l-6.4,10.5L135,91.3c0.3-1.3,0.5-2.6,0.5-4
			c0-1.8-0.2-3.5-0.7-5.1c0,0,0,0,0.1-0.1l9.1-9c0.4-0.4,0.7-1,0.7-1.6l0-6.8c0-1.2-1-2.3-2.2-2.3c-1.2,0-2.3,1-2.3,2.2l0,5.8
			l-7.3,7.2c-0.4-0.6-0.8-1.2-1.3-1.7c1.1-1.2,1.8-2.8,1.8-4.6c0-2.9-1.8-5.4-4.4-6.4c0.9-6.6,6.6-11.7,13.5-11.7
			c1.2,0,2.3-1,2.3-2.2s-1-2.3-2.2-2.3c-9.2,0-16.8,6.8-18,15.7l-4.8,0c-1.1-8.9-8.6-15.9-17.8-15.9c-1.2,0-2.3,1-2.3,2.2
			s1,2.3,2.2,2.3c6.9,0,12.5,5.2,13.4,11.8c-2.6,1-4.4,3.4-4.4,6.3c0,1.8,0.7,3.4,1.8,4.6c-0.5,0.5-0.9,1.1-1.3,1.7l-7.2-7.3l0-5.8
			c0-1.2-1-2.3-2.2-2.3c-1.2,0-2.3,1-2.3,2.2l0,6.8c0,0.6,0.2,1.2,0.7,1.6l9,9.1c0,0,0,0,0.1,0.1c-0.5,1.6-0.7,3.3-0.8,5.1
			c0,1.4,0.1,2.7,0.4,4l-14.8-3.8l-6.2-10.5c-0.6-1.1-2-1.4-3.1-0.8c-1.1,0.6-1.4,2-0.8,3.1l6.7,11.3c0.3,0.5,0.8,0.9,1.4,1
			l14.8,3.8c-3.9,4.5-8.9,10.5-13.5,17L69,121c-0.5,0.2-0.8,0.5-1.1,0.9l-13.7,20.3c-0.7,1-0.4,2.4,0.6,3.1c0.4,0.3,0.8,0.4,1.2,0.4
			c0.7,0,1.4-0.3,1.9-1L71.2,125l17.8-6.4c-3.9,6.2-7,12.5-8.1,17.9c0,0.1-0.1,0.8,0,1.9c0.2,4,2,7.7,5.1,10.4
			c2.8,2.5,6.5,3.8,10.3,3.9c0.4,0,0.9,0,1.3,0c2.1-0.2,4-0.5,5.7-1c-0.9,2.4-1.4,4.5-1.7,6.3c-1,5.8-3.8,11.1-8,15.3
			c-0.2,0.2-0.9,0.8-1.6,1.3c-0.7,0.6-1.5,1.2-1.5,1.3c-0.9,0.9-0.9,2.3-0.1,3.2c0.4,0.5,1,0.7,1.6,0.7c0.6,0,1.1-0.2,1.5-0.6
			c0.1-0.1,0.7-0.6,1.4-1.2c0.8-0.7,1.7-1.4,1.8-1.5c4.9-4.9,8.2-11.1,9.3-17.8c0.5-3,1.8-7.4,4.7-11.7c2,5.9,5,11.5,9,16.3
			c0.4,0.5,1.1,0.8,1.7,0.8c0.7,0,1.3-0.3,1.7-0.8c4-4.8,7.1-10.3,9.2-16.2c2.9,4.4,4.1,8.8,4.6,11.8c1.1,6.7,4.3,12.9,9.1,17.9
			c0.1,0.1,1,0.9,1.8,1.6c0.6,0.5,1.2,1,1.3,1.2c0.4,0.4,1,0.6,1.6,0.6c0.6,0,1.2-0.2,1.6-0.7c0.9-0.9,0.9-2.3,0-3.2
			c-0.1-0.1-0.8-0.7-1.5-1.3c-0.7-0.6-1.4-1.2-1.5-1.3c-4.2-4.3-7-9.6-7.9-15.4c-0.3-1.8-0.8-3.9-1.6-6.3c1.7,0.5,3.6,0.9,5.7,1.1
			c0.4,0,0.9,0.1,1.3,0.1c3.8,0,7.4-1.3,10.3-3.8c3.1-2.6,4.9-6.3,5.2-10.3c0.1-1.1,0-1.9,0-2.1c-1-5.3-4-11.6-7.8-17.8l17.7,6.5
			l13,19.8c0.4,0.7,1.1,1,1.9,1c0.4,0,0.9-0.1,1.3-0.4C189.4,145.2,189.7,143.8,189,142.8z M128.7,143.8c-0.1,0-0.2,0-0.3,0
			l-13.6-0.1c-0.1,0-0.2,0-0.3,0c-0.5-1.8-0.9-3.6-1.2-5.5c0.1-0.4,0.2-0.8,0.3-1.3l16.3,0.1c0.1,0.5,0.2,0.9,0.2,1.3
			C129.7,140.1,129.2,142,128.7,143.8z M117.4,69.1l9,0c1.2,0,2.3,1,2.2,2.3c0,0.9-0.6,1.7-1.4,2.1c-0.1,0-0.1,0-0.2,0
			c-0.2,0.1-0.4,0.1-0.5,0.1c-0.1,0-0.1,0-0.2,0l-9,0c-0.1,0-0.1,0-0.2,0c-0.2,0-0.3-0.1-0.5-0.1c-0.1,0-0.1,0-0.2,0
			c-0.8-0.3-1.4-1.2-1.4-2.1C115.2,70.1,116.2,69.1,117.4,69.1z M112.8,87.2c0-3.6,1.4-7,3.8-9.1c0.3,0,0.5,0.1,0.8,0.1c0,0,0,0,0,0
			l9,0c0,0,0,0,0,0c0.3,0,0.5,0,0.8,0c2.3,2.1,3.7,5.5,3.7,9.1c0,0.4,0,0.9-0.1,1.3c-0.3-0.3-0.5-0.5-0.6-0.6
			c-0.5-0.6-1.3-0.8-2.1-0.7c-0.8,0.2-1.4,0.7-1.7,1.4c-0.8,2.1-1.1,5.2-1.2,8.9c-1.1,0.6-2.3,0.9-3.5,0.9c-1.2,0-2.4-0.3-3.5-0.9
			c0-3.7-0.3-6.9-1.1-8.9c-0.3-0.7-0.9-1.3-1.7-1.4c-0.8-0.2-1.6,0.1-2.1,0.6c-0.1,0.1-0.3,0.3-0.6,0.6
			C112.8,88,112.8,87.6,112.8,87.2z M115.5,125.6l12.4,0.1c0.4,2.4,0.7,4.7,1.1,6.8l-14.6-0.1C114.7,130.3,115.1,128,115.5,125.6z
			 M127.2,121.1l-11.1-0.1c0.3-2.2,0.6-4.5,0.9-6.8l9.3,0C126.6,116.6,126.9,118.9,127.2,121.1z M125.9,109.8l-8.3,0
			c0.3-2.5,0.5-5,0.6-7.4c1.2,0.4,2.4,0.6,3.6,0.6c1.3,0,2.5-0.2,3.6-0.6C125.5,104.8,125.7,107.3,125.9,109.8z M97.2,148.1
			c-3,0.2-6-0.8-8.2-2.7c-2.1-1.9-3.4-4.4-3.6-7.2c0-0.6,0-1,0-1c0,0,0,0,0,0c2.5-12.3,17.5-30.7,25.8-40.1c0.7,1.1,1.6,2.1,2.5,2.9
			c-0.2,5.3-0.9,11.8-1.8,18.3c0,0,0,0,0,0c0,0.2,0,0.4-0.1,0.5c0,0.2-0.1,0.4-0.1,0.6c0,0,0,0,0,0c-1.1,7.4-2.3,14.3-3.1,18.3
			c0,0,0,0.1,0,0.1c-0.2,1.1-0.4,2.2-0.6,3.1c0,0.1,0,0.2,0,0.3C107.6,146.2,101.9,147.7,97.2,148.1z M121.5,158.1
			c-2.2-3.1-4.1-6.4-5.5-9.9l11.1,0.1C125.6,151.7,123.8,155.1,121.5,158.1z M157.8,138.5c-0.2,2.8-1.5,5.3-3.6,7.2
			c-2.3,1.9-5.3,2.9-8.3,2.6c-4.7-0.4-10.4-2-10.7-7c0-0.1,0-0.2,0-0.3c-0.2-0.9-0.4-1.9-0.6-3.1c0-0.1,0-0.1,0-0.2
			c-0.7-4-1.9-10.9-2.9-18.4c0,0,0,0,0,0c0-0.2-0.1-0.4-0.1-0.6c-0.9-6.6-1.5-13.4-1.7-18.8c1-0.8,1.8-1.8,2.6-2.9
			c4,4.6,9.5,11.3,14.5,18.5c0.1,0.1,0.1,0.2,0.2,0.3c5.1,7.4,9.5,15.2,10.7,21.4C157.8,137.4,157.8,137.8,157.8,138.5z"/>
	</g>
</g>
<ellipse class="st1" cx="120" cy="118.8" rx="110.5" ry="110"/>
<line class="st1" x1="33.3" y1="56" x2="205.7" y2="190.6"/>
</svg>
