<?xml version="1.0" encoding="utf-8"?>
<!-- Generator: Adobe Illustrator 23.0.1, SVG Export Plug-In . SVG Version: 6.00 Build 0)  -->
<svg version="1.1" id="Layer_1" xmlns="http://www.w3.org/2000/svg" xmlns:xlink="http://www.w3.org/1999/xlink" x="0px" y="0px"
	 viewBox="0 0 240 240" style="enable-background:new 0 0 240 240;" xml:space="preserve">
<style type="text/css">
	.st0{fill:none;stroke:#000000;stroke-width:12;stroke-miterlimit:10;}
</style>
<path d="M176.6,131.6l-11.8-12.4c-0.7-0.8-1.8-1.2-2.9-1.3l-11.5-0.3l0.2-8.4l14.8-13.9c0.8-0.7,1.2-1.8,1.3-2.9l0.6-22.5
	c0.1-2.3-1.7-4.1-4-4.2c-2.3-0.1-4.1,1.7-4.2,4l-0.6,20.8l-7.6,7.2l0.1-3.3c0.1-2.3-1.7-4.1-4-4.2l-2.7-0.1
	c-1.2-8.4-6.9-15.4-14.5-18.6l14.6-13.8c1.6-1.5,1.7-4.1,0.2-5.8c-1.5-1.6-4.1-1.7-5.8-0.2L121.6,68l-16.2-17.1
	c-1.5-1.6-4.1-1.7-5.8-0.2c-1.6,1.5-1.7,4.1-0.2,5.8L113.2,71c-7.8,2.7-13.9,9.4-15.6,17.7l-2.9-0.1c-2.3-0.1-4.1,1.7-4.2,4
	l-0.1,3.3l-7.2-7.6l0.6-20.8c0.1-2.3-1.7-4.1-4-4.2c-2.3-0.1-4.1,1.7-4.2,4l-0.6,22.5c0,1.1,0.4,2.1,1.1,2.9l14,14.8l-0.2,8.4
	l-11.5-0.3c-1.1,0-2.1,0.4-2.9,1.1l-12.5,11.8c-1.6,1.5-1.7,4.1-0.2,5.8c0.8,0.8,1.8,1.2,2.9,1.3c1,0,2.1-0.3,2.9-1.1l11.2-10.6
	l9.8,0.3l-0.1,4l-15.3,18.8c-0.6,0.7-0.9,1.6-0.9,2.5l-0.7,23.7c-0.1,2.3,1.7,4.1,4,4.2c2.3,0.1,4.1-1.7,4.2-4l0.6-22.4l7.9-9.7
	c0.8,9.7,6.2,18.1,14,23.1c0.1,0.1,0.2,0.2,0.4,0.2c4.4,2.7,9.5,4.3,14.9,4.4c5.5,0.2,10.7-1.2,15.2-3.6c0.1,0,0.2-0.1,0.3-0.1
	c8.1-4.5,14-12.6,15.4-22.3l7.3,10.1l-0.6,22.4c-0.1,2.3,1.7,4.1,4,4.2c2.3,0.1,4.1-1.7,4.2-4l0.7-23.7c0-0.9-0.2-1.8-0.8-2.5
	l-14.2-19.6l0.1-4l9.8,0.3l10.6,11.2c0.8,0.8,1.8,1.2,2.9,1.3c1,0,2.1-0.3,2.9-1.1C178,135.8,178.1,133.2,176.6,131.6L176.6,131.6z
	 M121.4,77.9c7.2,0.2,13.1,5.3,14.7,11.9L106,88.9C108,82.4,114.2,77.7,121.4,77.9z M97.4,137.9l0.9-32c0,0,0,0,0,0l0.3-9.1
	l18.1,0.5l-1.4,48.8l-9.9,9.3C100.4,151.3,97.2,145,97.4,137.9L97.4,137.9z M112.9,159.7l6.2-5.9l5.9,6.2c-1.9,0.5-4,0.7-6.1,0.7
	C116.8,160.6,114.8,160.3,112.9,159.7L112.9,159.7z M141.7,139.2c-0.2,7-3.7,13.2-8.9,17.1l-9.3-9.9l1.4-48.8l18.1,0.5l-0.3,9.1
	c0,0,0,0,0,0L141.7,139.2L141.7,139.2z"/>
<ellipse class="st0" cx="120" cy="118.8" rx="110.5" ry="110"/>
<line class="st0" x1="33.9" y1="55.2" x2="205" y2="191.4"/>
</svg>
