<?xml version="1.0" encoding="utf-8"?>
<!-- Generator: Adobe Illustrator 23.0.1, SVG Export Plug-In . SVG Version: 6.00 Build 0)  -->
<svg version="1.1" id="Layer_1" xmlns="http://www.w3.org/2000/svg" xmlns:xlink="http://www.w3.org/1999/xlink" x="0px" y="0px"
	 viewBox="0 0 240 240" style="enable-background:new 0 0 240 240;" xml:space="preserve">
<style type="text/css">
	.st0{fill:none;stroke:#000000;stroke-width:12;stroke-miterlimit:10;}
</style>
<ellipse class="st0" cx="119.6" cy="118.8" rx="110.5" ry="110"/>
<line class="st0" x1="33.6" y1="53.6" x2="198.6" y2="197"/>
<g>
	<g>
		<path d="M64.5,107.8c-1.9,0-3.4,1.5-3.4,3.4c0,1.9,1.5,3.4,3.4,3.4c1.9,0,3.4-1.5,3.4-3.4C67.9,109.3,66.4,107.8,64.5,107.8z"/>
	</g>
</g>
<g>
	<g>
		<path d="M173.6,129.3c1.5-2.7,2.4-5.8,2.4-9.1c-0.1-15.8-10.2-29.6-25.2-34.5c-5-1.6-10.5-2-15.9-1.3l-28.6,4
			c-0.9-1.4-2-2.6-3.4-3.5c-2.2-1.5-4.9-2.3-7.8-2.1c-2-2.3-4.6-3.7-7.5-4.1c-7.5-1.1-14.7,5-16.1,13.6c-0.2,1-0.2,2-0.2,3
			c-6.5,2-12.4,5.9-16.7,11.3c-4.7,5.9-7.3,13.4-7.3,20.9c0,6.3,5.1,11.4,11.4,11.4h98.5c4,0,7.8-1.3,10.8-3.5h3.2
			c4.5,0,8.1,3.6,8.1,8.1c0,4.5-3.6,8.1-8.1,8.1h-47.2c-1.7,0-3.2,1.4-3.2,3.2s1.4,3.2,3.2,3.2h47.2c8,0,14.4-6.5,14.4-14.4
			C185.7,136.3,180.5,130.4,173.6,129.3z M77.7,93.2c0.9-5.2,4.9-8.9,8.9-8.3c0.3,0,0.5,0.1,0.8,0.2c-2,1.2-3.9,2.8-5.4,4.7
			c-0.8,1-1.5,2.1-2,3.3l-2.4,0.6C77.7,93.5,77.7,93.3,77.7,93.2z M157.3,132.5H138c0.9-1.4,2.3-2.5,4-2.9l8-1.6
			c1.7-0.3,2.8-2,2.5-3.7c-0.3-1.7-2-2.8-3.7-2.5l-8,1.6c-4.7,0.9-8.4,4.5-9.6,9H83.1c0.9-1.4,2.3-2.5,4-2.9l8-1.6
			c1.7-0.3,2.8-2,2.5-3.7c-0.3-1.7-2-2.8-3.7-2.5l-8,1.6c-4.7,0.9-8.4,4.5-9.6,9H58.7c-2.8,0-5.1-2.3-5.1-5.1c0-6.2,2.1-12.2,5.9-17
			s9.2-8.2,15.2-9.6l3.6-0.9c0,1.2,0.1,2.4,0.4,3.6c0.4,1.7,2.2,2.7,3.9,2.3c1.7-0.4,2.7-2.2,2.3-3.9c-0.7-2.6,0.1-5.7,2.1-8.2
			c3.3-4.2,8.8-5.8,12.2-3.5c1.6,1.1,2.2,2.7,2.4,3.9c0.4,2.5-0.4,5.2-2.3,7.6c-2,2.7-5,4.4-8,4.6c-1.7,0.1-3.1,1.6-2.9,3.4
			c0.1,1.7,1.5,2.9,3.1,2.9c0.1,0,8-0.2,12.8-7c2.4-3.4,3.8-7.2,3.6-10.9l27.6-3.9c4.5-0.6,9-0.3,13.1,1c12.4,4,20.8,15.4,20.8,28.5
			C169.7,127,164.1,132.5,157.3,132.5z"/>
	</g>
</g>
</svg>
