<?xml version="1.0" encoding="utf-8"?>
<!-- Generator: Adobe Illustrator 23.0.1, SVG Export Plug-In . SVG Version: 6.00 Build 0)  -->
<svg version="1.1" id="Layer_1" xmlns="http://www.w3.org/2000/svg" xmlns:xlink="http://www.w3.org/1999/xlink" x="0px" y="0px"
	 viewBox="0 0 240 240" style="enable-background:new 0 0 240 240;" xml:space="preserve">
<g>
	<path d="M185.1,163.7c-2.1-3.4-17.8-27.8-31.2-40.7c-11.2-10.7-27.9-11.1-29.8-11.1c-0.2,0-0.3,0-0.5,0h-4.1
		c-1.8,0-17.9,0.3-29.6,10.9c-14.5,13.1-30.5,39.4-31.7,41.3c-8.5,13.4-13.7,22.2-13.7,31.9c0,17.5,12.8,28.8,32.7,28.8h89.2
		c19.8,0,32.7-11.3,32.7-28.9c0-9.8-5.2-18.5-13.7-32C185.2,163.9,185.2,163.8,185.1,163.7z M166.4,211.2H77.2
		c-7.1,0-19.1-2-19.1-15.3c0-5.7,3.7-12.2,11.6-24.7c0,0,0.1-0.1,0.1-0.1c0.2-0.3,15.9-26.3,29.2-38.3c8.1-7.3,20.4-7.4,20.5-7.4
		h4.6c0.1,0,0.3,0,0.4,0c2.2,0.1,13.3,0.8,20,7.3c12.9,12.4,29.2,38.3,29.4,38.5c0.1,0.1,0.1,0.2,0.2,0.3
		c8.4,13.3,11.4,19,11.4,24.4C185.5,208.6,175.1,211.2,166.4,211.2z"/>
	<path d="M89,95.5c15.3,0,27.3-17,27.3-38.7C116.3,35,104.3,18,89,18c-15.3,0-27.3,17-27.3,38.7C61.8,78.5,73.7,95.5,89,95.5z
		 M89,31.6c6.5,0,13.7,10.3,13.7,25.2c0,14.8-7.2,25.2-13.7,25.2S75.3,71.6,75.3,56.7C75.3,41.9,82.5,31.6,89,31.6z"/>
	<path d="M53.3,142.1c2.7,0,5.2-0.5,7.6-1.6c11.9-5.5,15.2-22.9,7.5-39.5c-6-12.9-17-21.5-27.4-21.5c-2.7,0-5.2,0.6-7.6,1.6
		c-11.9,5.5-15.2,22.9-7.6,39.5C31.8,133.4,42.9,142.1,53.3,142.1L53.3,142.1z M38.2,114.9c-4.6-10-3.3-19.6,0.9-21.5
		c0.6-0.3,1.2-0.4,1.9-0.4c4.3,0,11,4.8,15.1,13.7c4.6,9.9,3.3,19.6-0.9,21.5c-0.6,0.3-1.2,0.4-1.9,0.4
		C49,128.5,42.3,123.8,38.2,114.9z"/>
	<path d="M154.5,95.5c15.3,0,27.3-17,27.3-38.7c0-21.7-12-38.7-27.3-38.7c-15.3,0-27.3,17-27.3,38.7
		C127.2,78.5,139.2,95.5,154.5,95.5z M154.5,31.6c6.5,0,13.7,10.3,13.7,25.2c0,14.8-7.2,25.2-13.7,25.2c-6.5,0-13.7-10.3-13.7-25.2
		C140.7,41.9,148,31.6,154.5,31.6z"/>
	<path d="M210.1,81c-2.4-1.1-4.9-1.7-7.6-1.7c-10.4,0-21.4,8.7-27.4,21.5c-7.7,16.6-4.4,34,7.6,39.5c2.4,1.1,4.9,1.6,7.6,1.6
		c10.4,0,21.5-8.7,27.4-21.5C225.3,103.9,222,86.5,210.1,81z M205.3,114.9c-4.1,8.9-10.8,13.7-15.1,13.7c-0.7,0-1.3-0.1-1.9-0.4
		c-4.2-2-5.6-11.6-0.9-21.5c4.1-8.9,10.8-13.7,15.1-13.7c0.7,0,1.3,0.1,1.9,0.4C208.6,95.3,209.9,104.9,205.3,114.9z"/>
</g>
</svg>
